<svg width="22" height="22" viewBox="0 0 22 22" fill="none" xmlns="http://www.w3.org/2000/svg">
<path d="M11.2993 12.1289C11.7826 12.1289 12.1743 11.7372 12.1743 11.2539C12.1743 10.7707 11.7826 10.3789 11.2993 10.3789C10.8161 10.3789 10.4243 10.7707 10.4243 11.2539C10.4243 11.7372 10.8161 12.1289 11.2993 12.1289Z" stroke="#98A2B3" stroke-width="1.75" stroke-linecap="round" stroke-linejoin="round"/>
<path d="M11.2993 6.00391C11.7826 6.00391 12.1743 5.61216 12.1743 5.12891C12.1743 4.64566 11.7826 4.25391 11.2993 4.25391C10.8161 4.25391 10.4243 4.64566 10.4243 5.12891C10.4243 5.61216 10.8161 6.00391 11.2993 6.00391Z" stroke="#98A2B3" stroke-width="1.75" stroke-linecap="round" stroke-linejoin="round"/>
<path d="M11.2993 18.2539C11.7826 18.2539 12.1743 17.8622 12.1743 17.3789C12.1743 16.8957 11.7826 16.5039 11.2993 16.5039C10.8161 16.5039 10.4243 16.8957 10.4243 17.3789C10.4243 17.8622 10.8161 18.2539 11.2993 18.2539Z" stroke="#98A2B3" stroke-width="1.75" stroke-linecap="round" stroke-linejoin="round"/>
</svg>
