<svg width="18" height="21" viewBox="0 0 18 21" fill="none" xmlns="http://www.w3.org/2000/svg">
<path d="M9.4 8.72039C9.4 8.35221 9.10153 8.05373 8.73335 8.05373C8.36517 8.05373 8.0667 8.35221 8.0667 8.72039V10.7204H6.06675C5.69857 10.7204 5.4001 11.0189 5.4001 11.3871C5.4001 11.7552 5.69857 12.0537 6.06675 12.0537H8.0667V14.0537C8.0667 14.4219 8.36517 14.7204 8.73335 14.7204C9.10153 14.7204 9.4 14.4219 9.4 14.0537V12.0537H11.3999C11.7681 12.0537 12.0666 11.7552 12.0666 11.3871C12.0666 11.0189 11.7681 10.7204 11.3999 10.7204H9.4V8.72039Z" fill="#F7F7F7"/>
<path fill-rule="evenodd" clip-rule="evenodd" d="M8.58954 0.0537254C7.07289 0.0534867 6.14739 0.0533411 5.37628 0.303896C3.8203 0.809475 2.60039 2.02941 2.09483 3.58543C2.07146 3.65733 2.05037 3.73002 2.03131 3.80385C1.656 4.09707 1.32329 4.44149 1.04301 4.82728C0.522283 5.54401 0.289117 6.38345 0.176872 7.41949C0.0668816 8.43472 0.0668874 9.71436 0.0668946 11.3468V11.4273C0.0668874 13.0598 0.0668816 14.3394 0.176872 15.3546C0.289117 16.3907 0.522283 17.2301 1.04301 17.9468C1.35825 18.3807 1.73982 18.7623 2.17372 19.0776C2.89043 19.5983 3.72986 19.8315 4.76587 19.9437C5.78106 20.0537 7.06065 20.0537 8.69304 20.0537H8.77359C10.406 20.0537 11.6856 20.0537 12.7008 19.9437C13.7368 19.8315 14.5763 19.5983 15.293 19.0776C15.7269 18.7623 16.1084 18.3807 16.4237 17.9468C16.9444 17.2301 17.1776 16.3907 17.2898 15.3546C17.3998 14.3394 17.3998 13.0598 17.3998 11.4274V11.3468C17.3998 9.71438 17.3998 8.4347 17.2898 7.41949C17.1776 6.38345 16.9444 5.54401 16.4237 4.82728C16.1434 4.44153 15.8108 4.09715 15.4355 3.80395C15.4164 3.73008 15.3953 3.65736 15.372 3.58543C14.8664 2.02941 13.6465 0.809475 12.0905 0.303896C11.3194 0.0533411 10.3939 0.0534867 8.87725 0.0537254H8.58954ZM4.82072 2.82457C4.48847 2.85898 4.17617 2.90539 3.88149 2.96921C4.3456 2.31945 5.01008 1.82483 5.78829 1.57197C6.33202 1.3953 7.02708 1.38707 8.73339 1.38707C10.4397 1.38707 11.1348 1.3953 11.6785 1.57197C12.4567 1.82483 13.1212 2.31947 13.5853 2.96923C13.2906 2.90541 12.9783 2.859 12.6461 2.82458C11.6402 2.72039 10.3766 2.7204 8.77141 2.7204H8.69528C7.09014 2.7204 5.82656 2.72039 4.82072 2.82457ZM3.00633 4.74057C3.4581 4.42848 4.03921 4.24598 4.95807 4.15081C5.88727 4.05457 7.08197 4.05373 8.73335 4.05373C10.3848 4.05373 11.5795 4.05457 12.5087 4.15082C13.4276 4.246 14.0087 4.42852 14.4605 4.74063C14.4625 4.74204 14.4645 4.74346 14.4666 4.74488C14.4809 4.75483 14.4951 4.76495 14.5093 4.77522C14.83 5.00824 15.112 5.29028 15.345 5.61099C15.6731 6.06255 15.8643 6.64052 15.9643 7.5631C16.0656 8.49817 16.0665 9.70566 16.0665 11.3871C16.0665 13.0685 16.0656 14.2759 15.9643 15.211C15.8643 16.1336 15.6731 16.7116 15.345 17.1631C15.112 17.4838 14.83 17.7659 14.5093 17.9989C14.0577 18.327 13.4798 18.5182 12.5572 18.6182C11.6222 18.7195 10.4147 18.7204 8.73335 18.7204C7.05199 18.7204 5.84452 18.7195 4.90948 18.6182C3.98692 18.5182 3.40896 18.327 2.95741 17.9989C2.63671 17.7659 2.35467 17.4838 2.12167 17.1631C1.7936 16.7116 1.60237 16.1336 1.50242 15.211C1.40111 14.2759 1.4002 13.0685 1.4002 11.3871C1.4002 9.70566 1.40111 8.49817 1.50242 7.5631C1.60237 6.64052 1.7936 6.06255 2.12167 5.61099C2.35467 5.29027 2.63671 5.00824 2.95741 4.77522C2.97361 4.76346 2.98991 4.75191 3.00633 4.74057Z" fill="#F7F7F7"/>
</svg>
