<svg width="21" height="18" viewBox="0 0 21 18" fill="none" xmlns="http://www.w3.org/2000/svg">
<path fill-rule="evenodd" clip-rule="evenodd" d="M7.36419 0.134766C9.60318 0.134766 11.4182 1.94982 11.4182 4.18881C11.4182 6.4278 9.60318 8.24286 7.36419 8.24286C5.1252 8.24286 3.31014 6.4278 3.31014 4.18881C3.31014 1.94982 5.1252 0.134766 7.36419 0.134766ZM9.79662 4.18881C9.79662 2.84542 8.70759 1.75639 7.36419 1.75639C6.0208 1.75639 4.93176 2.84542 4.93176 4.18881C4.93176 5.53221 6.0208 6.62124 7.36419 6.62124C8.70759 6.62124 9.79662 5.53221 9.79662 4.18881Z" fill="#2D264B"/>
<path fill-rule="evenodd" clip-rule="evenodd" d="M10.6074 9.86448C12.8464 9.86448 14.6615 11.6795 14.6615 13.9185C14.6615 16.1575 12.8464 17.9726 10.6074 17.9726H4.12095C1.88196 17.9726 0.0668945 16.1575 0.0668945 13.9185C0.0668945 11.6795 1.88196 9.86448 4.12095 9.86448H10.6074ZM13.0399 13.9185C13.0399 12.5751 11.9508 11.4861 10.6074 11.4861H4.12095C2.77755 11.4861 1.68852 12.5751 1.68852 13.9185C1.68852 15.2619 2.77755 16.351 4.12095 16.351H10.6074C11.9508 16.351 13.0399 15.2619 13.0399 13.9185Z" fill="#2D264B"/>
<path d="M11.9565 7.04141C12.127 6.76748 12.4469 6.62124 12.7696 6.62124C14.113 6.62124 15.202 5.53221 15.202 4.18881C15.202 2.84542 14.113 1.75639 12.7696 1.75639C12.4469 1.75639 12.127 1.61014 11.9565 1.33622C11.9489 1.3241 11.9413 1.31202 11.9337 1.29997C11.6498 0.851854 11.7937 0.217361 12.3209 0.15931C12.4683 0.143091 12.618 0.134766 12.7696 0.134766C15.0086 0.134766 16.8237 1.94982 16.8237 4.18881C16.8237 6.4278 15.0086 8.24286 12.7696 8.24286C12.618 8.24286 12.4683 8.23454 12.3209 8.21832C11.7937 8.16027 11.6498 7.52577 11.9337 7.07766C11.9413 7.06561 11.9489 7.05352 11.9565 7.04141Z" fill="#2D264B"/>
<path d="M15.2471 15.6124C15.3698 15.4077 15.5865 15.2699 15.8252 15.2699H16.0128C17.3562 15.2699 18.4453 14.1808 18.4453 12.8375C18.4453 11.4941 17.3562 10.405 16.0128 10.405H15.8252C15.5865 10.405 15.3698 10.2672 15.2471 10.0625C14.9476 9.56267 15.2726 8.7834 15.8553 8.7834H16.0128C18.2518 8.7834 20.0669 10.5985 20.0669 12.8375C20.0669 15.0764 18.2518 16.8915 16.0128 16.8915H15.8553C15.2726 16.8915 14.9476 16.1122 15.2471 15.6124Z" fill="#2D264B"/>
</svg>
