<svg width="18" height="18" viewBox="0 0 18 18" fill="none" xmlns="http://www.w3.org/2000/svg">
<g clip-path="url(#clip0_2_12887)">
<path d="M2.25537 8.7192H16.3783V15.0745C16.3783 15.2618 16.3039 15.4414 16.1715 15.5739C16.0391 15.7063 15.8595 15.7807 15.6722 15.7807H2.96152C2.77424 15.7807 2.59463 15.7063 2.4622 15.5739C2.32977 15.4414 2.25537 15.2618 2.25537 15.0745V8.7192ZM12.8476 3.07001H15.6722C15.8595 3.07001 16.0391 3.14441 16.1715 3.27684C16.3039 3.40927 16.3783 3.58888 16.3783 3.77616V7.3069H2.25537V3.77616C2.25537 3.58888 2.32977 3.40927 2.4622 3.27684C2.59463 3.14441 2.77424 3.07001 2.96152 3.07001H5.78611V1.65771H7.19841V3.07001H11.4353V1.65771H12.8476V3.07001Z" fill="#667085"/>
</g>
<defs>
<clipPath id="clip0_2_12887">
<rect width="16.9476" height="16.9476" fill="white" transform="translate(0.842773 0.951416)"/>
</clipPath>
</defs>
</svg>
