<svg width="171" height="38" viewBox="0 0 171 38" fill="none" xmlns="http://www.w3.org/2000/svg">
<g clip-path="url(#clip0_3_15657)">
<path d="M0.602526 27.8674C0.602526 27.5096 0.602526 27.149 0.602526 26.7912C0.602526 19.6898 0.596857 12.5855 0.602526 5.48409C0.60536 2.19243 2.09905 0.638195 5.34436 0.63247C10.2988 0.621021 15.2588 0.538014 20.2104 0.70689C29.028 1.01316 34.0674 10.2155 29.7338 17.9552C27.8319 21.3556 25.8847 24.7303 23.9347 28.105C22.6168 30.3862 20.1849 31.1218 18.1584 29.8911C16.1772 28.6889 15.7038 26.3132 17.0076 24.0204C18.6742 21.0866 20.3663 18.167 22.0272 15.2331C23.8809 11.9587 23.0051 8.34641 19.944 6.56605C17.0388 4.87728 13.5752 5.93348 11.7188 9.14213C8.36292 14.9383 5.04675 20.7603 1.71075 26.5708C1.44149 27.0402 1.15239 27.501 0.874621 27.9647C0.783923 27.9304 0.693224 27.8989 0.602526 27.8674Z" fill="#3F88C5"/>
<path d="M30.6758 20.4239C32.9745 24.5656 31.7869 30.6767 28.0427 34.2603C25.7554 36.4528 23.0118 37.6321 19.86 37.6664C14.8546 37.718 9.84917 37.7094 4.84375 37.6722C1.45956 37.6464 -0.453612 34.4063 1.22431 31.4323C5.28874 24.2279 9.41835 17.0606 13.5621 9.90199C14.7667 7.82395 17.1221 7.21714 19.0721 8.35061C20.9881 9.46405 21.6088 11.8627 20.4411 13.9579C18.749 16.9891 16.9832 19.9773 15.2741 22.9971C13.4148 26.2859 14.2877 29.9439 17.3176 31.6699C20.3163 33.3787 23.8111 32.2996 25.6676 29.0738C27.0904 26.6007 28.4905 24.1162 29.9077 21.6403C30.1373 21.2425 30.398 20.8618 30.6758 20.4239Z" fill="#3F88C5"/>
</g>
<path d="M50.9683 27.4144C49.717 27.4144 48.5751 27.1562 47.5423 26.6399C46.5294 26.1235 45.7449 25.3787 45.1888 24.4055L45.5761 23.7799V27.0569H42.3586V4.50507H45.725V14.2765L45.1888 13.502C45.7846 12.5884 46.5791 11.8734 47.5721 11.357C48.5651 10.8406 49.6972 10.5825 50.9683 10.5825C52.4976 10.5825 53.8679 10.9499 55.0794 11.6847C56.3108 12.4196 57.2741 13.4225 57.9692 14.6936C58.6842 15.9647 59.0417 17.3947 59.0417 18.9835C59.0417 20.5724 58.6842 22.0024 57.9692 23.2735C57.2741 24.5445 56.3207 25.5574 55.1092 26.3122C53.8977 27.047 52.5174 27.4144 50.9683 27.4144ZM50.6406 24.2864C51.5939 24.2864 52.438 24.058 53.1728 23.6012C53.9077 23.1444 54.4836 22.5188 54.9007 21.7243C55.3376 20.91 55.5561 19.9964 55.5561 18.9835C55.5561 17.9706 55.3376 17.067 54.9007 16.2726C54.4836 15.4781 53.9077 14.8525 53.1728 14.3957C52.438 13.9389 51.5939 13.7105 50.6406 13.7105C49.7071 13.7105 48.863 13.9389 48.1083 14.3957C47.3735 14.8525 46.7876 15.4781 46.3507 16.2726C45.9336 17.067 45.725 17.9706 45.725 18.9835C45.725 19.9964 45.9336 20.91 46.3507 21.7243C46.7876 22.5188 47.3735 23.1444 48.1083 23.6012C48.863 24.058 49.7071 24.2864 50.6406 24.2864Z" fill="#032B43"/>
<path d="M60.8268 27.0569V10.9399H64.1932V27.0569H60.8268Z" fill="#032B43"/>
<path d="M65.1798 27.0569V24.2864L74.6534 12.8168L75.1896 13.9786H65.6267V10.9399H78.1687V13.6807L68.8143 25.1801L68.2781 23.9884H78.1985V27.0569H65.1798Z" fill="#032B43"/>
<path d="M86.9482 33.611C85.7765 33.611 84.6941 33.4223 83.701 33.0449C82.708 32.6676 81.854 32.1413 81.139 31.466C80.424 30.8106 79.8878 30.036 79.5303 29.1423L82.6285 27.8613C82.9066 28.616 83.413 29.2416 84.1479 29.7381C84.9026 30.2346 85.8261 30.4829 86.9185 30.4829C87.7725 30.4829 88.5371 30.3141 89.2124 29.9765C89.8876 29.6587 90.4239 29.182 90.8211 28.5465C91.2183 27.9308 91.4169 27.186 91.4169 26.3122V22.6776L92.0127 23.3628C91.4566 24.3956 90.6821 25.1801 89.689 25.7163C88.7159 26.2526 87.6136 26.5207 86.3822 26.5207C84.8927 26.5207 83.5521 26.1731 82.3604 25.478C81.1688 24.7829 80.2254 23.8296 79.5303 22.6181C78.855 21.4066 78.5174 20.0461 78.5174 18.5367C78.5174 17.0074 78.855 15.6469 79.5303 14.4553C80.2254 13.2637 81.1588 12.3203 82.3306 11.6251C83.5024 10.93 84.843 10.5825 86.3524 10.5825C87.5838 10.5825 88.6761 10.8506 89.6294 11.3868C90.6026 11.9032 91.3971 12.6579 92.0127 13.6509L91.5659 14.4851V10.9399H94.7535V26.3122C94.7535 27.7024 94.4159 28.9437 93.7406 30.036C93.0852 31.1482 92.1716 32.0221 90.9998 32.6577C89.8281 33.2932 88.4775 33.611 86.9482 33.611ZM86.7695 23.3926C87.6632 23.3926 88.4577 23.1841 89.1528 22.767C89.8479 22.3301 90.3941 21.7541 90.7913 21.0391C91.2084 20.3043 91.4169 19.4801 91.4169 18.5665C91.4169 17.6529 91.2084 16.8287 90.7913 16.0938C90.3742 15.359 89.8181 14.783 89.123 14.3659C88.4279 13.929 87.6434 13.7105 86.7695 13.7105C85.8559 13.7105 85.0416 13.929 84.3266 14.3659C83.6116 14.783 83.0456 15.359 82.6285 16.0938C82.2313 16.8088 82.0327 17.633 82.0327 18.5665C82.0327 19.4602 82.2313 20.2745 82.6285 21.0093C83.0456 21.7442 83.6116 22.3301 84.3266 22.767C85.0416 23.1841 85.8559 23.3926 86.7695 23.3926Z" fill="#032B43"/>
<path d="M104.771 27.4144C103.163 27.4144 101.733 27.047 100.482 26.3122C99.2502 25.5574 98.2869 24.5445 97.5918 23.2735C96.8967 21.9825 96.5491 20.5426 96.5491 18.9538C96.5491 17.3252 96.8967 15.8853 97.5918 14.634C98.3068 13.3828 99.2601 12.3997 100.452 11.6847C101.643 10.9499 102.994 10.5825 104.503 10.5825C105.715 10.5825 106.797 10.791 107.751 11.2081C108.704 11.6251 109.508 12.2011 110.164 12.9359C110.819 13.6509 111.316 14.4752 111.653 15.4086C112.011 16.3421 112.189 17.3351 112.189 18.3877C112.189 18.6459 112.18 18.914 112.16 19.1921C112.14 19.4701 112.1 19.7283 112.041 19.9666H99.2005V17.2854H110.134L108.525 18.5069C108.724 17.5337 108.654 16.6698 108.317 15.9151C107.999 15.1405 107.502 14.5347 106.827 14.0978C106.172 13.641 105.397 13.4126 104.503 13.4126C103.61 13.4126 102.815 13.641 102.12 14.0978C101.425 14.5347 100.889 15.1703 100.511 16.0044C100.134 16.8187 99.985 17.8118 100.064 18.9835C99.9652 20.0759 100.114 21.0292 100.511 21.8435C100.928 22.6578 101.504 23.2933 102.239 23.7501C102.994 24.2069 103.848 24.4353 104.801 24.4353C105.774 24.4353 106.599 24.2168 107.274 23.7799C107.969 23.343 108.515 22.7769 108.912 22.0818L111.653 23.4224C111.335 24.1771 110.839 24.8623 110.164 25.478C109.508 26.0738 108.714 26.5505 107.78 26.908C106.867 27.2456 105.864 27.4144 104.771 27.4144Z" fill="#032B43"/>
<path d="M113.985 27.0569V10.9399H117.203V14.4255L116.786 13.8893C117.123 12.7969 117.739 11.9727 118.633 11.4166C119.526 10.8605 120.549 10.5825 121.701 10.5825C122.992 10.5825 124.134 10.93 125.127 11.6251C126.14 12.3004 126.815 13.2041 127.153 14.3361L126.2 14.4255C126.676 13.1346 127.401 12.1713 128.374 11.5358C129.367 10.9002 130.5 10.5825 131.771 10.5825C132.883 10.5825 133.886 10.8406 134.779 11.357C135.693 11.8734 136.418 12.5884 136.954 13.502C137.49 14.4156 137.759 15.4583 137.759 16.63V27.0569H134.392V17.5536C134.392 16.7393 134.243 16.0541 133.945 15.498C133.667 14.922 133.27 14.4851 132.754 14.1872C132.257 13.8694 131.671 13.7105 130.996 13.7105C130.321 13.7105 129.725 13.8694 129.209 14.1872C128.692 14.4851 128.285 14.922 127.987 15.498C127.689 16.0739 127.54 16.7591 127.54 17.5536V27.0569H124.204V17.5536C124.204 16.7393 124.055 16.0541 123.757 15.498C123.479 14.922 123.082 14.4851 122.565 14.1872C122.069 13.8694 121.473 13.7105 120.778 13.7105C120.102 13.7105 119.507 13.8694 118.99 14.1872C118.474 14.4851 118.067 14.922 117.769 15.498C117.491 16.0739 117.352 16.7591 117.352 17.5536V27.0569H113.985Z" fill="#032B43"/>
<path d="M141.362 27.0569V23.1841H144.788V27.0569H141.362Z" fill="#032B43"/>
<path d="M148.711 27.0569V10.9399H152.077V27.0569H148.711Z" fill="#032B43"/>
<path d="M162.299 27.4144C160.75 27.4144 159.33 27.047 158.039 26.3122C156.768 25.5773 155.755 24.5743 155 23.3033C154.245 22.0322 153.868 20.5923 153.868 18.9835C153.868 17.355 154.245 15.9151 155 14.6638C155.755 13.3927 156.768 12.3997 158.039 11.6847C159.31 10.9499 160.73 10.5825 162.299 10.5825C163.888 10.5825 165.308 10.9499 166.559 11.6847C167.83 12.3997 168.833 13.3927 169.568 14.6638C170.323 15.9151 170.7 17.355 170.7 18.9835C170.7 20.6121 170.323 22.062 169.568 23.333C168.813 24.6041 167.8 25.6071 166.529 26.3419C165.258 27.0569 163.848 27.4144 162.299 27.4144ZM162.299 24.2864C163.252 24.2864 164.096 24.058 164.831 23.6012C165.566 23.1444 166.142 22.5188 166.559 21.7243C166.996 20.91 167.214 19.9964 167.214 18.9835C167.214 17.9706 166.996 17.067 166.559 16.2726C166.142 15.4781 165.566 14.8525 164.831 14.3957C164.096 13.9389 163.252 13.7105 162.299 13.7105C161.365 13.7105 160.521 13.9389 159.767 14.3957C159.032 14.8525 158.446 15.4781 158.009 16.2726C157.592 17.067 157.383 17.9706 157.383 18.9835C157.383 19.9964 157.592 20.91 158.009 21.7243C158.446 22.5188 159.032 23.1444 159.767 23.6012C160.521 24.058 161.365 24.2864 162.299 24.2864Z" fill="#032B43"/>
<path d="M148.707 4.86432V8.73716H152.073V4.86432H148.707Z" fill="#032B43"/>
<path d="M148.707 4.86432V8.73716H152.073V4.86432H148.707Z" fill="#3F88C5"/>
<path d="M60.828 4.86432V8.73716H64.1944V4.86432H60.828Z" fill="#3F88C5"/>
<defs>
<clipPath id="clip0_3_15657">
<rect width="31.2456" height="37.1042" fill="white" transform="translate(0.600037 0.600037)"/>
</clipPath>
</defs>
</svg>
