<svg width="143" height="46" viewBox="0 0 143 46" fill="none" xmlns="http://www.w3.org/2000/svg">
<g clip-path="url(#clip0_62_1859)">
<path d="M15.0126 6.18476V0.522451L19.9161 3.35306L19.9161 3.35308L24.8224 6.18476L19.9161 9.01645L19.916 9.01651L15.0126 11.8481V6.18476Z" stroke="white"/>
<path d="M15.0126 19.2591V13.602L19.916 16.4336L19.9165 16.4338L24.8203 19.2587L19.9168 22.0779L19.9161 22.0784L15.0126 24.909V19.2591Z" stroke="white"/>
<path d="M25.3227 12.714V18.3807L20.4163 15.549L20.416 15.5488L15.5121 12.7142L20.416 9.88235L20.4161 9.88229L25.3227 7.05045V12.714Z" stroke="white"/>
<path d="M0.5 12.714V7.05045L5.40655 9.88229L5.40666 9.88235L10.3106 12.7142L5.40666 15.5488L5.40637 15.549L0.5 18.3807V12.714Z" stroke="white"/>
<path d="M0.5 25.776V20.1125L5.40655 22.9443L5.40666 22.9444L10.3102 25.776L5.40666 28.6077L5.40655 28.6078L0.5 31.4396V25.776Z" stroke="white"/>
<path d="M5.90681 16.4148L10.8101 13.5806V19.2467V24.91L5.90663 22.0784L5.90653 22.0784L1.00025 19.2467L5.90653 16.415L5.90681 16.4148Z" stroke="white"/>
<path d="M0.5 38.8289V33.1715L5.40665 36.0034L5.40691 36.0036L10.3095 38.8293L5.40655 41.6607L5.40653 41.6607L0.5 44.4943V38.8289Z" stroke="white"/>
<path d="M5.90663 29.4738L10.8101 26.6422V32.3056V37.9689L5.90663 35.1373L5.90653 35.1373L1.00025 32.3056L5.90653 29.4739L5.90663 29.4738Z" stroke="white"/>
<path d="M5.90603 9.01643L1.00001 6.18489L5.90628 3.35321L5.90632 3.35319L10.8098 0.522577V6.18489V11.8428L5.90628 9.01657L5.90603 9.01643Z" stroke="white"/>
<path d="M44.7528 17.8396C44.7528 18.5976 44.4421 19.0117 43.8209 19.0821L42.8703 19.1256C42.0658 19.1256 41.5004 18.989 41.1743 18.7094C40.8481 18.4298 40.6928 17.9173 40.6928 17.1904V6.2655C40.6785 5.99653 40.7649 5.73187 40.9351 5.52309C41.1418 5.30998 41.4028 5.15744 41.6899 5.082C42.9277 4.6955 44.2206 4.51501 45.5169 4.54771C47.6043 4.54771 49.2238 4.99606 50.3752 5.89274C51.5266 6.78943 52.1023 8.03196 52.1023 9.62032C52.1023 11.1362 51.6312 12.3425 50.6889 13.2392C50.1704 13.7173 49.5533 14.0757 48.881 14.2891C48.077 14.5396 47.2381 14.6602 46.396 14.6463H44.7465L44.7528 17.8396ZM45.9735 11.4593C46.5118 11.4957 47.0443 11.3307 47.4677 10.9964C47.6466 10.8192 47.7849 10.6051 47.8729 10.3691C47.9608 10.1331 47.9964 9.88077 47.9771 9.62964C47.9928 9.37768 47.9521 9.1254 47.8581 8.89113C47.7641 8.65685 47.619 8.44647 47.4335 8.27528C46.9791 7.92794 46.4137 7.7579 45.8431 7.79691C45.471 7.78752 45.0988 7.81143 44.731 7.86836V11.4593H45.9735Z" fill="white"/>
<path d="M53.6151 8.95564C53.6151 8.43068 53.7456 8.07656 54.0096 7.8995C54.2849 7.7179 54.6126 7.63269 54.9415 7.6572L55.3826 7.67895C56.1716 7.67895 56.7307 7.81873 57.0662 8.0983C57.4017 8.37787 57.5632 8.85624 57.5632 9.53652V14.5222C57.5632 15.6963 58.1669 16.2834 59.3742 16.2834C59.853 16.297 60.3286 16.2025 60.7658 16.007V8.95564C60.7658 8.43068 60.8963 8.07656 61.1572 7.8995C61.433 7.71897 61.7604 7.63386 62.0891 7.6572L62.5302 7.67895C63.3192 7.67895 63.8794 7.81873 64.2107 8.0983C64.5431 8.37476 64.7109 8.85624 64.7109 9.53652V16.5878C64.7235 16.8886 64.6649 17.1881 64.5396 17.4618C64.4143 17.7355 64.2261 17.9757 63.9902 18.1627C63.3411 18.6266 62.5993 18.9445 61.8158 19.0946C61.01 19.2866 60.1839 19.3804 59.3556 19.3742C57.5166 19.3742 56.1022 18.9683 55.1124 18.1565C54.1225 17.3448 53.6234 16.1333 53.6151 14.5222V8.95564Z" fill="white"/>
<path d="M70.153 17.9079C70.153 18.4329 70.0194 18.787 69.7585 18.964C69.4919 19.1418 69.1743 19.2269 68.8545 19.2063L68.3886 19.1846C67.5996 19.1846 67.0394 19.0448 66.7081 18.7652C66.3767 18.4857 66.21 18.0063 66.208 17.327V10.3689C66.199 10.0831 66.255 9.79903 66.3717 9.53806C66.4885 9.27709 66.663 9.04603 66.882 8.86231C67.5333 8.37277 68.271 8.01026 69.0565 7.79374C69.915 7.54045 70.8048 7.40871 71.6999 7.40234C73.309 7.40234 74.1135 8.01222 74.1135 9.23196C74.1208 9.34131 74.1124 9.45114 74.0887 9.55812C74.0266 10.0986 73.6124 10.4093 72.8462 10.49C72.3431 10.5384 71.8433 10.6152 71.3489 10.7199C70.942 10.801 70.5428 10.9174 70.1561 11.0678L70.153 17.9079Z" fill="white"/>
<path d="M84.8583 8.84037C86.0801 9.90687 86.691 11.4217 86.691 13.3849C86.691 15.286 86.1806 16.7552 85.1596 17.7928C84.1387 18.8303 82.7005 19.348 80.8449 19.3459C80.2097 19.3608 79.5773 19.2554 78.9812 19.0353V21.831C78.9812 22.7277 78.5556 23.1605 77.7045 23.1294H77.195C76.406 23.1294 75.849 22.9948 75.5238 22.7256C75.2132 22.4522 75.0361 21.9707 75.0361 21.2749V10.1388C75.0245 9.79863 75.105 9.46162 75.2691 9.16343C75.4674 8.85138 75.7313 8.58636 76.0426 8.38685C76.593 8.03128 77.2018 7.77575 77.8411 7.63201C78.6196 7.44767 79.4175 7.35797 80.2175 7.36487C82.2386 7.37316 83.7856 7.86499 84.8583 8.84037ZM82.6528 13.3849C82.6528 11.4362 81.8876 10.4619 80.3573 10.4619C79.8722 10.4644 79.3948 10.5837 78.9656 10.8098V15.9134C79.3705 16.1128 79.8131 16.2239 80.2641 16.2396C81.8566 16.2396 82.6528 15.288 82.6528 13.3849Z" fill="white"/>
<path d="M92.1394 17.9078C92.1394 18.4328 92.0213 18.7807 91.7822 18.9515C91.519 19.1284 91.2035 19.2106 90.8875 19.1845H90.3936C89.6046 19.1845 89.0445 19.0447 88.7131 18.7652C88.3776 18.4887 88.213 18.0103 88.213 17.3269V4.94209C88.213 4.41712 88.3279 4.06921 88.5609 3.89837C88.8269 3.71831 89.144 3.62897 89.4649 3.64365L89.9774 3.66539C90.7633 3.66539 91.3255 3.80518 91.6579 4.08474C91.9903 4.36431 92.1549 4.84268 92.1549 5.52297L92.1394 17.9078Z" fill="white"/>
<path d="M99.5633 19.4175C97.7223 19.2477 96.28 18.6326 95.2362 17.5724C94.1925 16.5121 93.6748 15.1391 93.6831 13.4534C93.676 13.2067 93.6843 12.9598 93.7079 12.7141C93.8467 10.9808 94.4338 9.65851 95.4692 8.74733C96.5578 7.8151 97.9571 7.32614 99.3894 7.37744C100.244 7.37169 101.091 7.52877 101.887 7.84028C102.624 8.12545 103.289 8.56988 103.835 9.14183C104.643 10.0098 105.088 11.1551 105.077 12.3413C105.084 12.4888 105.076 12.6366 105.052 12.7824C105.033 13.2379 104.836 13.6675 104.502 13.9784C104.145 14.2723 103.691 14.421 103.229 14.3946H97.2429C97.4419 15.0419 97.8885 15.5845 98.4854 15.9043C99.146 16.3289 99.9149 16.5543 100.7 16.5535C101.295 16.5606 101.889 16.4821 102.462 16.3205C102.679 16.2514 102.907 16.2198 103.136 16.2273C103.285 16.2147 103.435 16.2427 103.569 16.3083C103.704 16.374 103.818 16.4748 103.9 16.6001C104.06 16.8647 104.141 17.1699 104.133 17.4792C104.145 17.7563 104.082 18.0315 103.951 18.2762C103.821 18.521 103.627 18.7263 103.39 18.8708C102.763 19.2351 102.05 19.4279 101.325 19.4299L100.393 19.4734L99.5633 19.4175ZM98.0785 10.695C97.693 11.0129 97.4242 11.45 97.3144 11.9375L101.325 11.9841C101.332 11.7545 101.288 11.5262 101.196 11.3156C101.104 11.105 100.967 10.9175 100.793 10.7664C100.4 10.4131 99.8836 10.228 99.3552 10.2508C98.8909 10.2457 98.4394 10.4028 98.0785 10.695Z" fill="white"/>
<path d="M110.535 17.8396C110.535 18.5975 110.224 19.0117 109.603 19.0821L108.653 19.1256C107.848 19.1256 107.283 18.9889 106.96 18.7093C106.637 18.4298 106.472 17.9297 106.472 17.2028V6.26545C106.458 5.99648 106.544 5.73182 106.714 5.52305C106.925 5.30985 107.189 5.15744 107.478 5.08195C108.716 4.69568 110.009 4.51518 111.305 4.54766C113.393 4.54766 115.012 4.99601 116.164 5.8927C117.315 6.78938 117.892 8.03191 117.894 9.62027C117.894 11.1361 117.422 12.3424 116.477 13.2391C115.957 13.7183 115.338 14.0768 114.663 14.2891C113.859 14.5394 113.02 14.66 112.178 14.6463H110.532L110.535 17.8396ZM111.74 11.4592C112.28 11.4964 112.813 11.3314 113.238 10.9964C113.419 10.8202 113.559 10.6067 113.649 10.3706C113.74 10.1346 113.777 9.88166 113.759 9.62959C113.775 9.37739 113.734 9.12496 113.639 8.89067C113.544 8.65639 113.399 8.44614 113.213 8.27524C112.759 7.92785 112.195 7.75776 111.625 7.79686C111.252 7.78737 110.879 7.81128 110.51 7.86831V11.4592H111.74Z" fill="white"/>
<path d="M128.486 8.45545C129.447 9.17612 129.926 10.2323 129.924 11.6239V16.8176C129.937 17.1488 129.843 17.4754 129.657 17.7495C129.424 18.0537 129.127 18.3029 128.788 18.4795C127.8 19.0863 126.385 19.3886 124.544 19.3866C122.828 19.3866 121.501 19.0656 120.565 18.4236C120.108 18.1141 119.739 17.6919 119.493 17.1977C119.247 16.7036 119.132 16.1543 119.161 15.6031C119.161 14.5366 119.479 13.7175 120.115 13.146C120.75 12.5744 121.732 12.2182 123.059 12.0774L126.097 11.7668V11.6053C126.097 10.7769 125.332 10.3627 123.802 10.3627C123.026 10.3778 122.255 10.4874 121.506 10.6889C121.286 10.7516 121.06 10.7902 120.832 10.8038C120.69 10.8093 120.548 10.7768 120.422 10.7096C120.296 10.6425 120.19 10.5432 120.115 10.4217C119.938 10.1436 119.85 9.81897 119.86 9.48985C119.84 9.15248 119.933 8.81807 120.124 8.53932C120.378 8.25788 120.698 8.04433 121.056 7.91806C121.859 7.59086 122.965 7.4283 124.373 7.43037C126.15 7.37756 127.529 7.73789 128.486 8.45545ZM125.461 16.4138C125.693 16.3815 125.917 16.3067 126.122 16.1933V14.3295L124.451 14.4693C123.461 14.5314 122.966 14.8565 122.966 15.4447C122.966 16.1405 123.492 16.4884 124.544 16.4884C124.851 16.49 125.158 16.4651 125.461 16.4138Z" fill="white"/>
<path d="M132.487 13.0713C132.073 11.8287 131.707 10.5572 131.388 9.25671C131.342 9.09803 131.318 8.93403 131.316 8.76902C131.314 8.57873 131.364 8.3915 131.461 8.22735C131.557 8.06321 131.696 7.92833 131.863 7.83713C132.275 7.59946 132.745 7.48216 133.22 7.49854C133.711 7.46831 134.198 7.59448 134.612 7.85887C134.987 8.18186 135.248 8.61783 135.354 9.1014L137.184 15.4787H137.277C137.588 14.611 137.913 13.532 138.253 12.2419C138.592 10.9517 138.855 9.81274 139.042 8.82493C139.059 8.61161 139.125 8.40518 139.236 8.22191C139.346 8.03864 139.498 7.88352 139.678 7.76879C140.103 7.57193 140.568 7.4803 141.036 7.50165C142.278 7.50165 142.905 8.01936 142.915 9.0548C142.865 10.0869 142.682 11.1081 142.368 12.0928C141.976 13.4585 141.5 14.7988 140.943 16.1061C140.39 17.4466 139.739 18.7444 138.995 19.989C138.485 20.8928 137.826 21.7045 137.047 22.3902C136.462 22.8752 135.72 23.1313 134.96 23.1109C134.533 23.1213 134.112 23.0138 133.742 22.8002C133.397 22.5938 133.118 22.2917 132.941 21.9305C132.856 21.7737 132.808 21.5993 132.801 21.421C132.823 21.2266 132.887 21.0392 132.987 20.8711C133.087 20.703 133.222 20.558 133.382 20.4456C134.16 19.8047 134.867 19.0819 135.491 18.2899C135.176 18.1673 134.891 17.9763 134.659 17.7307C134.237 17.258 133.899 16.717 133.658 16.131C133.209 15.1348 132.818 14.1132 132.487 13.0713Z" fill="white"/>
</g>
<defs>
<clipPath id="clip0_62_1859">
<rect width="142.915" height="45.0198" fill="white"/>
</clipPath>
</defs>
</svg>
