<svg width="169" height="48" viewBox="0 0 169 48" fill="none" xmlns="http://www.w3.org/2000/svg">
<path d="M17.9338 13.7541V10.2868C17.9335 10.2364 17.9465 10.1867 17.9716 10.143C17.9967 10.0993 18.033 10.063 18.0767 10.0378C18.1204 10.0127 18.1701 9.99966 18.2205 10C18.2709 10.0004 18.3203 10.0141 18.3637 10.0398L21.3654 11.7725L24.7988 13.7541L21.3654 15.7358L17.9338 17.7174V13.7541Z" fill="#7750A1"/>
<path d="M17.9338 21.69V17.7306L21.3654 19.7122L24.7988 21.69L21.3654 23.6641L18.3637 25.3969C18.3203 25.4226 18.2709 25.4363 18.2205 25.4366C18.1701 25.437 18.1204 25.4239 18.0767 25.3988C18.033 25.3737 17.9967 25.3374 17.9716 25.2937C17.9465 25.2499 17.9335 25.2003 17.9338 25.1499V21.69Z" fill="#764A9D"/>
<path d="M24.7988 17.7174V21.6825L21.3654 19.7009L17.9338 17.7174L21.3654 15.7358L24.7988 13.7542V17.7174Z" fill="#41256A"/>
<path d="M9.125 17.7174V13.7542L12.5584 15.7358L15.9899 17.7174L12.5584 19.7009L9.125 21.6825V17.7174Z" fill="#8B65AC"/>
<path d="M9.125 25.6457V21.6825L12.5584 23.6641L15.9899 25.6457L12.5584 27.6273L9.125 29.6089V25.6457Z" fill="#9A72B2"/>
<path d="M15.9899 21.6825V25.6457L12.5584 23.6641L9.125 21.6825L12.5584 19.7009L15.9899 17.7174V21.6825Z" fill="#6E479C"/>
<path d="M9.125 33.5684V29.6089L12.5584 31.5906L15.9899 33.5684L12.5584 35.55L9.55488 37.2846C9.51154 37.3097 9.4624 37.3229 9.41236 37.323C9.36231 37.3232 9.3131 37.3102 9.26962 37.2854C9.22614 37.2606 9.18992 37.2249 9.16454 37.1817C9.13917 37.1386 9.12554 37.0896 9.125 37.0395V33.5684Z" fill="#7750A1"/>
<path d="M15.9899 29.6089V33.5722L12.5584 31.5906L9.125 29.6089L12.5584 27.6273L15.9899 25.6457V29.6089Z" fill="#8059A5"/>
<path d="M15.9899 13.7537V17.7131L12.5584 15.7353L9.125 13.7537L12.5584 11.7721L15.5601 10.0393C15.6035 10.0142 15.6528 10.001 15.7031 10.0009C15.7533 10.0009 15.8026 10.014 15.8461 10.039C15.8897 10.0641 15.9259 10.1001 15.9511 10.1435C15.9763 10.1869 15.9897 10.2361 15.9899 10.2863V13.7537Z" fill="#B292C4"/>
<path d="M38.87 28.9601C38.87 29.8998 38.4849 30.4133 37.7146 30.5006L36.5361 30.5545C35.5386 30.5545 34.8377 30.385 34.4333 30.0384C34.0289 29.6918 33.8364 29.0564 33.8364 28.1552V14.6102C33.8187 14.2767 33.9258 13.9486 34.1368 13.6898C34.393 13.4255 34.7166 13.2364 35.0726 13.1429C36.6073 12.6637 38.2102 12.4399 39.8174 12.4805C42.4054 12.4805 44.4132 13.0363 45.8408 14.1481C47.2683 15.2598 47.9821 16.8003 47.9821 18.7696C47.9821 20.649 47.398 22.1446 46.2298 23.2563C45.5869 23.8491 44.8217 24.2934 43.9883 24.5581C42.9914 24.8686 41.9513 25.0181 40.9073 25.001H38.8623L38.87 28.9601ZM40.3835 21.0496C41.0508 21.0947 41.7111 20.8902 42.236 20.4757C42.4579 20.256 42.6293 19.9906 42.7384 19.698C42.8474 19.4054 42.8915 19.0925 42.8676 18.7812C42.887 18.4688 42.8366 18.156 42.7201 17.8655C42.6035 17.5751 42.4236 17.3142 42.1936 17.102C41.6302 16.6714 40.9293 16.4605 40.2218 16.5089C39.7605 16.4973 39.299 16.5269 38.843 16.5975V21.0496H40.3835Z" fill="#7750A1"/>
<path d="M49.8575 17.9455C49.8575 17.2946 50.0193 16.8555 50.3467 16.636C50.688 16.4109 51.0943 16.3052 51.502 16.3356L52.0489 16.3626C53.0271 16.3626 53.7204 16.5359 54.1363 16.8825C54.5522 17.2291 54.7525 17.8222 54.7525 18.6656V24.8469C54.7525 26.3027 55.5009 27.0306 56.9978 27.0306C57.5914 27.0474 58.1811 26.9303 58.7232 26.6878V17.9455C58.7232 17.2946 58.8849 16.8555 59.2084 16.636C59.5503 16.4122 59.9562 16.3067 60.3638 16.3356L60.9107 16.3626C61.8889 16.3626 62.5834 16.5359 62.9942 16.8825C63.4063 17.2253 63.6143 17.8222 63.6143 18.6656V27.408C63.63 27.7809 63.5573 28.1522 63.402 28.4916C63.2467 28.831 63.0133 29.1288 62.7208 29.3606C61.916 29.9357 60.9964 30.3299 60.0249 30.516C59.0258 30.754 58.0017 30.8703 56.9747 30.8626C54.6947 30.8626 52.9411 30.3594 51.7139 29.3529C50.4866 28.3465 49.8678 26.8445 49.8575 24.8469V17.9455Z" fill="#7750A1"/>
<path d="M70.3618 29.0448C70.3618 29.6957 70.1962 30.1347 69.8727 30.3542C69.5422 30.5746 69.1483 30.6802 68.7519 30.6546L68.1742 30.6277C67.196 30.6277 66.5015 30.4544 66.0907 30.1078C65.6799 29.7612 65.4732 29.1668 65.4706 28.3246V19.6978C65.4595 19.3435 65.5289 18.9913 65.6737 18.6677C65.8184 18.3442 66.0348 18.0577 66.3064 17.8299C67.1139 17.223 68.0284 16.7735 69.0023 16.5051C70.0667 16.191 71.1699 16.0277 72.2797 16.0198C74.2747 16.0198 75.2721 16.7759 75.2721 18.2882C75.2811 18.4238 75.2708 18.5599 75.2413 18.6926C75.1643 19.3627 74.6508 19.7478 73.7008 19.848C73.0772 19.908 72.4574 20.0032 71.8445 20.133C71.3399 20.2335 70.8451 20.3779 70.3656 20.5643L70.3618 29.0448Z" fill="#7750A1"/>
<path d="M88.5937 17.8029C90.1085 19.1252 90.8659 21.0033 90.8659 23.4373C90.8659 25.7943 90.233 27.616 88.9672 28.9023C87.7014 30.1886 85.9183 30.8305 83.6178 30.8279C82.8302 30.8463 82.0461 30.7157 81.307 30.4428V33.909C81.307 35.0207 80.7794 35.5573 79.7242 35.5188H79.0926C78.1143 35.5188 77.4237 35.3519 77.0206 35.0181C76.6354 34.6792 76.4159 34.0823 76.4159 33.2196V19.4128C76.4015 18.991 76.5013 18.5732 76.7048 18.2035C76.9506 17.8166 77.2778 17.488 77.6637 17.2406C78.3461 16.7998 79.101 16.483 79.8936 16.3048C80.8588 16.0762 81.848 15.965 82.8398 15.9736C85.3457 15.9838 87.2637 16.5936 88.5937 17.8029ZM85.8592 23.4373C85.8592 21.0213 84.9106 19.8133 83.0132 19.8133C82.4117 19.8164 81.8199 19.9643 81.2878 20.2446V26.5723C81.7898 26.8194 82.3385 26.9572 82.8976 26.9767C84.872 26.9767 85.8592 25.7969 85.8592 23.4373Z" fill="#7750A1"/>
<path d="M97.6211 29.0448C97.6211 29.6957 97.4747 30.127 97.1782 30.3389C96.8519 30.5581 96.4608 30.66 96.069 30.6277H95.4566C94.4784 30.6277 93.7839 30.4544 93.3731 30.1078C92.9572 29.765 92.7531 29.1719 92.7531 28.3246V12.9696C92.7531 12.3187 92.8955 11.8874 93.1844 11.6756C93.5142 11.4523 93.9073 11.3416 94.3051 11.3598L94.9406 11.3867C95.9149 11.3867 96.612 11.56 97.0241 11.9067C97.4362 12.2533 97.6403 12.8464 97.6403 13.6898L97.6211 29.0448Z" fill="#7750A1"/>
<path d="M106.826 30.9165C104.543 30.706 102.755 29.9435 101.461 28.6289C100.167 27.3143 99.5248 25.6121 99.5351 23.5221C99.5264 23.2162 99.5367 22.9101 99.5659 22.6055C99.738 20.4565 100.466 18.8171 101.75 17.6874C103.099 16.5316 104.834 15.9254 106.61 15.989C107.669 15.9819 108.72 16.1766 109.706 16.5629C110.62 16.9164 111.445 17.4674 112.121 18.1765C113.124 19.2527 113.675 20.6726 113.662 22.1433C113.67 22.3262 113.66 22.5095 113.631 22.6902C113.607 23.2549 113.362 23.7876 112.949 24.173C112.506 24.5374 111.943 24.7217 111.37 24.689H103.949C104.195 25.4916 104.749 26.1643 105.489 26.5608C106.308 27.0872 107.262 27.3667 108.235 27.3657C108.973 27.3745 109.709 27.2772 110.419 27.0768C110.689 26.9911 110.971 26.952 111.255 26.9613C111.439 26.9457 111.625 26.9804 111.792 27.0617C111.959 27.1431 112.1 27.2681 112.202 27.4234C112.401 27.7516 112.501 28.1299 112.491 28.5134C112.505 28.8569 112.428 29.1982 112.266 29.5016C112.104 29.805 111.864 30.0595 111.57 30.2387C110.792 30.6904 109.909 30.9295 109.009 30.932L107.854 30.9859L106.826 30.9165ZM104.985 20.1022C104.507 20.4963 104.173 21.0383 104.037 21.6427L109.009 21.7005C109.018 21.4158 108.963 21.1327 108.85 20.8716C108.736 20.6106 108.565 20.378 108.351 20.1908C107.863 19.7527 107.223 19.5232 106.568 19.5514C105.992 19.5451 105.432 19.7399 104.985 20.1022Z" fill="#7750A1"/>
<path d="M120.428 28.96C120.428 29.8998 120.043 30.4133 119.273 30.5005L118.095 30.5545C117.097 30.5545 116.396 30.385 115.996 30.0384C115.595 29.6918 115.391 29.0717 115.391 28.1705V14.6102C115.373 14.2767 115.48 13.9486 115.691 13.6897C115.952 13.4254 116.279 13.2365 116.639 13.1429C118.173 12.664 119.776 12.4402 121.384 12.4804C123.972 12.4804 125.979 13.0363 127.407 14.148C128.834 15.2598 129.549 16.8003 129.552 18.7696C129.552 20.649 128.967 22.1446 127.796 23.2563C127.151 23.8504 126.383 24.2949 125.547 24.558C124.55 24.8685 123.51 25.018 122.466 25.0009H120.425L120.428 28.96ZM121.923 21.0495C122.591 21.0956 123.253 20.891 123.779 20.4757C124.004 20.2573 124.178 19.9926 124.29 19.6999C124.401 19.4072 124.448 19.0936 124.426 18.7811C124.445 18.4684 124.394 18.1555 124.277 17.865C124.159 17.5745 123.979 17.3139 123.748 17.102C123.186 16.6713 122.487 16.4604 121.78 16.5089C121.318 16.4971 120.855 16.5267 120.398 16.5975V21.0495H121.923Z" fill="#7750A1"/>
<path d="M142.685 17.3254C143.876 18.2189 144.471 19.5283 144.468 21.2537V27.693C144.484 28.1036 144.368 28.5085 144.137 28.8484C143.848 29.2255 143.48 29.5345 143.058 29.7535C141.834 30.5057 140.08 30.8806 137.798 30.878C135.669 30.878 134.025 30.4801 132.864 29.6841C132.297 29.3004 131.839 28.7769 131.535 28.1643C131.23 27.5516 131.088 26.8706 131.123 26.1872C131.123 24.8649 131.517 23.8495 132.306 23.1408C133.094 22.4322 134.311 21.9906 135.957 21.816L139.723 21.4309V21.2306C139.723 20.2036 138.775 19.6901 136.877 19.6901C135.916 19.7088 134.96 19.8446 134.031 20.0945C133.759 20.1723 133.478 20.2201 133.195 20.237C133.018 20.2437 132.843 20.2034 132.687 20.1202C132.53 20.037 132.399 19.9138 132.306 19.7633C132.087 19.4184 131.977 19.0159 131.99 18.6079C131.965 18.1896 132.08 17.775 132.317 17.4294C132.632 17.0804 133.029 16.8157 133.473 16.6591C134.469 16.2535 135.84 16.0519 137.586 16.0545C139.789 15.989 141.499 16.4358 142.685 17.3254ZM138.934 27.1924C139.222 27.1522 139.5 27.0596 139.754 26.9189V24.6082L137.682 24.7815C136.455 24.8585 135.841 25.2616 135.841 25.9908C135.841 26.8535 136.493 27.2848 137.798 27.2848C138.178 27.2868 138.558 27.2559 138.934 27.1924Z" fill="#7750A1"/>
<path d="M147.645 23.0484C147.132 21.5079 146.677 19.9315 146.282 18.3191C146.226 18.1223 146.196 17.919 146.193 17.7144C146.191 17.4785 146.253 17.2464 146.372 17.0428C146.492 16.8393 146.664 16.6721 146.871 16.559C147.382 16.2644 147.965 16.1189 148.554 16.1392C149.162 16.1018 149.766 16.2582 150.28 16.586C150.745 16.9864 151.068 17.527 151.2 18.1265L153.468 26.0332H153.584C153.969 24.9574 154.372 23.6197 154.793 22.0201C155.214 20.4206 155.54 19.0084 155.772 17.7837C155.793 17.5193 155.875 17.2633 156.012 17.0361C156.149 16.8089 156.337 16.6166 156.561 16.4743C157.087 16.2302 157.665 16.1166 158.244 16.1431C159.785 16.1431 160.561 16.785 160.574 18.0687C160.512 19.3483 160.284 20.6144 159.896 21.8353C159.41 23.5285 158.819 25.1903 158.129 26.8111C157.443 28.4731 156.636 30.0821 155.714 31.6252C155.081 32.7458 154.265 33.7521 153.299 34.6023C152.573 35.2036 151.653 35.5211 150.711 35.4957C150.182 35.5087 149.659 35.3754 149.201 35.1106C148.773 34.8546 148.428 34.4801 148.208 34.0323C148.102 33.8379 148.043 33.6217 148.034 33.4007C148.062 33.1597 148.141 32.9273 148.265 32.7188C148.389 32.5104 148.556 32.3306 148.755 32.1914C149.719 31.3967 150.596 30.5006 151.37 29.5186C150.978 29.3666 150.626 29.1299 150.337 28.8253C149.815 28.2392 149.395 27.5685 149.097 26.8419C148.54 25.6069 148.055 24.3402 147.645 23.0484Z" fill="#7750A1"/>
</svg>
