<svg width="188" height="64" viewBox="0 0 188 64" fill="none" xmlns="http://www.w3.org/2000/svg">
<g filter="url(#filter0_dddd_2_12690)">
<path opacity="0.744" d="M31.5007 41.0701C31.4475 41.1685 31.358 41.1304 31.2794 41.1292C31.0509 41.0258 30.9784 40.7921 30.8695 40.5991C29.3112 37.8342 27.736 35.0791 26.1764 32.3155C26.0688 32.1248 25.8355 31.9231 26.1075 31.6784C26.2945 31.6053 26.4956 31.5775 26.695 31.5972C29.7795 31.5972 32.8639 31.5972 35.9484 31.5972C36.1211 31.585 36.2946 31.6012 36.4623 31.6452C36.4952 31.656 36.5251 31.6746 36.5496 31.6994C36.5742 31.7242 36.5927 31.7545 36.6037 31.7878C36.6166 31.9646 36.5601 32.1393 36.4465 32.2737C34.8531 35.0533 33.2862 37.8477 31.6952 40.6286C31.6087 40.7649 31.5432 40.9137 31.5007 41.0701Z" fill="white"/>
<path opacity="0.841" d="M36.5495 31.7286H26.5151C26.3436 31.7031 26.1684 31.7318 26.0134 31.811C25.9861 31.7816 25.9687 31.7441 25.9639 31.704C26.1137 31.2716 26.3255 30.8642 26.5925 30.4949C28.0795 27.8629 29.5706 25.2333 31.0657 22.6062C31.1016 22.5338 31.1523 22.4701 31.2143 22.4192C31.2966 22.3971 31.3775 22.3762 31.432 22.4733C32.5116 24.3379 33.5658 26.2173 34.6285 28.0904C35.2338 29.1564 35.8383 30.2223 36.4419 31.2882C36.5157 31.4186 36.662 31.5453 36.5495 31.7286Z" fill="white"/>
<path opacity="0.754" d="M36.5499 31.7235C35.9599 30.6584 35.376 29.5896 34.7776 28.5257C33.8104 26.8222 32.8432 25.1262 31.876 23.4215C31.6527 23.1444 31.5007 22.8151 31.4336 22.4634C33.0189 23.3883 34.6039 24.3132 36.1884 25.2381C37.1435 25.7965 38.0938 26.3659 39.0537 26.917C39.1382 26.952 39.21 27.013 39.2587 27.0915C39.3075 27.17 39.3309 27.2621 39.3257 27.3548C39.3192 30.3066 39.3192 33.2556 39.3257 36.2017C39.3257 36.2792 39.3487 36.3665 39.2701 36.4243C39.2318 36.3916 39.2026 36.3492 39.1855 36.3013C39.1592 36.1828 39.1494 36.061 39.1565 35.9397C39.1565 33.2396 39.1565 30.5395 39.1565 27.8394C39.144 27.7478 39.1534 27.6546 39.1842 27.5676C38.6172 28.3818 38.1989 29.2784 37.6936 30.1234C37.3563 30.6879 37.0468 31.2709 36.7058 31.8342C36.6635 31.8785 36.6176 31.9142 36.5523 31.8846C36.5499 31.8338 36.5491 31.7801 36.5499 31.7235Z" fill="white"/>
<path opacity="0.707" d="M26.01 31.7279C26.01 31.7574 26.01 31.7857 26.01 31.8152C26.7732 33.1715 27.5365 34.5272 28.2998 35.8826C29.2895 37.634 30.2808 39.3846 31.2738 41.1344C30.9229 41.0737 30.5942 40.9192 30.3212 40.6867C28.0524 39.3633 25.7868 38.0342 23.5244 36.6993C23.4731 36.6612 23.426 36.6175 23.3841 36.5689C23.3294 36.5089 23.2976 36.4309 23.2942 36.3491C23.2909 36.2673 23.3164 36.1869 23.366 36.1225C24.1652 34.6785 24.9872 33.2481 25.8105 31.8177C25.833 31.7842 25.8608 31.7547 25.8927 31.7304C25.9093 31.717 25.9298 31.7094 25.9509 31.709C25.9721 31.7086 25.9929 31.7152 26.01 31.7279Z" fill="white"/>
<path opacity="0.754" d="M26.0096 31.7225H25.9335C25.8126 31.7557 25.7678 31.6573 25.7243 31.5798C24.9022 30.1334 24.0729 28.6907 23.2665 27.2345C23.2665 27.157 23.2289 27.0696 23.3196 27.0131C24.2312 26.4707 25.1404 25.9258 26.0531 25.3883C27.6788 24.4331 29.306 23.4807 30.9349 22.5312C31.0261 22.4841 31.1202 22.443 31.2166 22.4082C31.0206 22.9375 30.7598 23.4396 30.4404 23.9026C28.9711 26.5174 27.4942 29.124 26.0096 31.7225Z" fill="white"/>
<path opacity="0.754" d="M36.5482 31.8885L36.6304 31.8098C36.7731 31.7765 36.813 31.8995 36.8626 31.9844C37.6448 33.3189 38.4053 34.6656 39.1597 36.0173C39.1759 36.0542 39.1872 36.0931 39.1934 36.133C39.2249 36.2006 39.2116 36.283 39.2551 36.347L39.2672 36.4318C38.9166 36.7772 38.5025 37.0488 38.0486 37.2313C36.5664 38.1304 35.0673 39.0011 33.5754 39.8781C32.8887 40.2815 32.196 40.6726 31.5057 41.0699C31.2857 40.9297 31.496 40.8079 31.5456 40.7169C31.9844 39.9162 32.4426 39.1254 32.8924 38.3321L36.0115 32.8306C36.1856 32.5157 36.3681 32.2021 36.5482 31.8885Z" fill="white"/>
<path opacity="0.73" d="M23.3018 27.2622C23.6736 27.7293 23.989 28.2401 24.2411 28.7836C24.8178 29.7577 25.3703 30.7515 25.9336 31.7293C25.3848 32.8485 24.7162 33.8977 24.1202 34.9886C23.901 35.3879 23.6753 35.7832 23.4432 36.1743C23.3845 36.2954 23.3667 36.4329 23.3924 36.5654C23.3332 36.5949 23.3089 36.5506 23.2811 36.5125C23.24 36.0414 23.2643 35.5704 23.2643 35.0993C23.2643 32.6321 23.2643 30.1652 23.2643 27.6988C23.2364 27.5526 23.2494 27.4013 23.3018 27.2622Z" fill="white"/>
<path opacity="0.73" d="M39.1832 36.1935C38.5449 35.085 37.9066 33.978 37.2682 32.8727C37.0615 32.5161 36.8427 32.1668 36.6299 31.815L39.1832 27.3479C39.2269 27.447 39.24 27.5572 39.2207 27.664C39.2207 30.4035 39.2207 33.1433 39.2207 35.8836C39.2388 35.9884 39.2257 36.0963 39.1832 36.1935Z" fill="white"/>
<path d="M45.2869 49.1283C44.1848 49.4971 43.1115 49.9495 42.076 50.4816C37.5815 53.288 32.2328 54.3238 27.0392 53.3936C21.8455 52.4634 17.1661 49.6315 13.884 45.4323C10.6018 41.2331 8.94389 35.9569 9.22304 30.5995C9.5022 25.2421 11.6991 20.1738 15.3993 16.3512C19.0994 12.5285 24.0469 10.2158 29.3081 9.84938C34.5693 9.483 39.7804 11.0883 43.958 14.3624C48.1356 17.6365 50.9909 22.3529 51.985 27.6217C52.9792 32.8904 52.0434 38.3472 49.3543 42.9622C48.7576 44.1222 48.2244 45.3149 47.7574 46.5349C45.1116 43.9667 43.089 40.975 43.4403 36.8274C43.5882 35.0802 43.8866 33.3347 43.8815 31.5884C43.9723 28.8378 43.1955 26.1299 41.6646 23.8608C40.1338 21.5917 37.9293 19.8806 35.3738 18.9779C32.8266 17.9945 30.0428 17.8372 27.4042 18.5274C24.7656 19.2177 22.4017 20.7218 20.6368 22.8332C18.8782 24.7759 17.7427 27.2173 17.3814 29.8325C17.0201 32.4478 17.4501 35.113 18.6142 37.4736C21.0215 42.8048 25.3898 45.2225 31.1123 45.1443C32.1574 45.1443 33.2003 45.048 34.2283 44.8564C38.8352 43.9267 42.3307 45.8496 45.2869 49.1283Z" fill="white"/>
</g>
<g filter="url(#filter1_ddd_2_12690)">
<path d="M71.5317 35.8538L75.6795 39.1383L73.6898 40.8648L69.6052 37.5803L71.5317 35.8538ZM75.7847 30.1058V30.8322C75.7847 31.9972 75.6268 33.0429 75.311 33.9694C75.0022 34.8958 74.5565 35.6853 73.974 36.338C73.3915 36.9837 72.7037 37.4785 71.9107 37.8224C71.1176 38.1663 70.2368 38.3382 69.2683 38.3382C68.3068 38.3382 67.426 38.1663 66.6259 37.8224C65.8258 37.4785 65.1345 36.9837 64.552 36.338C63.9695 35.6853 63.5168 34.8958 63.194 33.9694C62.8782 33.0429 62.7202 31.9972 62.7202 30.8322V30.1058C62.7202 28.9338 62.8782 27.888 63.194 26.9686C63.5168 26.0422 63.966 25.2527 64.5415 24.6C65.117 23.9473 65.8048 23.449 66.6049 23.1051C67.4049 22.7612 68.2857 22.5892 69.2472 22.5892C70.2158 22.5892 71.0965 22.7612 71.8896 23.1051C72.6897 23.449 73.381 23.9473 73.9635 24.6C74.546 25.2527 74.9952 26.0422 75.311 26.9686C75.6268 27.888 75.7847 28.9338 75.7847 30.1058ZM72.5949 30.8322V30.0847C72.5949 29.2706 72.5177 28.5548 72.3633 27.9372C72.216 27.3196 71.9984 26.8002 71.7106 26.3791C71.4299 25.958 71.0825 25.6422 70.6684 25.4316C70.2544 25.2141 69.7806 25.1053 69.2472 25.1053C68.7138 25.1053 68.2401 25.2141 67.826 25.4316C67.412 25.6422 67.0645 25.958 66.7838 26.3791C66.5031 26.8002 66.289 27.3196 66.1416 27.9372C65.9943 28.5548 65.9206 29.2706 65.9206 30.0847V30.8322C65.9206 31.6393 65.9943 32.3552 66.1416 32.9798C66.289 33.5974 66.5031 34.1203 66.7838 34.5484C67.0716 34.9695 67.4225 35.2888 67.8366 35.5064C68.2577 35.7239 68.7349 35.8327 69.2683 35.8327C69.8017 35.8327 70.2719 35.7239 70.679 35.5064C71.093 35.2888 71.4404 34.9695 71.7212 34.5484C72.0089 34.1203 72.2265 33.5974 72.3739 32.9798C72.5213 32.3552 72.5949 31.6393 72.5949 30.8322ZM86.5332 22.7998H89.6809V32.9271C89.6809 34.1062 89.4283 35.0993 88.9229 35.9064C88.4246 36.7135 87.7333 37.3206 86.849 37.7276C85.9718 38.1347 84.9611 38.3382 83.8172 38.3382C82.6732 38.3382 81.6555 38.1347 80.7642 37.7276C79.8799 37.3206 79.1851 36.7135 78.6798 35.9064C78.1815 35.0993 77.9323 34.1062 77.9323 32.9271V22.7998H81.0906V32.9271C81.0906 33.6149 81.1993 34.1764 81.4169 34.6115C81.6345 35.0467 81.9468 35.366 82.3538 35.5695C82.7679 35.7731 83.2557 35.8748 83.8172 35.8748C84.3927 35.8748 84.8804 35.7731 85.2805 35.5695C85.6875 35.366 85.9963 35.0467 86.2069 34.6115C86.4244 34.1764 86.5332 33.6149 86.5332 32.9271V22.7998ZM95.6394 22.7998V38.1277H92.4917V22.7998H95.6394ZM107.483 33.0429H110.63C110.567 34.0746 110.283 34.9905 109.778 35.7906C109.279 36.5907 108.581 37.2153 107.683 37.6645C106.791 38.1136 105.718 38.3382 104.461 38.3382C103.479 38.3382 102.598 38.1698 101.819 37.8329C101.04 37.489 100.373 36.9977 99.8188 36.3591C99.2714 35.7204 98.8538 34.9484 98.566 34.0431C98.2783 33.1377 98.1344 32.1236 98.1344 31.0006V29.9374C98.1344 28.8144 98.2818 27.8003 98.5766 26.8949C98.8784 25.9826 99.3065 25.2071 99.8609 24.5684C100.422 23.9297 101.093 23.4384 101.872 23.0946C102.651 22.7507 103.521 22.5787 104.482 22.5787C105.76 22.5787 106.837 22.8103 107.714 23.2735C108.599 23.7367 109.283 24.3754 109.767 25.1895C110.258 26.0036 110.553 26.93 110.652 27.9687H107.493C107.458 27.3511 107.335 26.8283 107.125 26.4002C106.914 25.965 106.595 25.6387 106.167 25.4211C105.746 25.1965 105.184 25.0842 104.482 25.0842C103.956 25.0842 103.496 25.1825 103.103 25.379C102.71 25.5755 102.38 25.8738 102.114 26.2738C101.847 26.6739 101.647 27.1792 101.514 27.7898C101.387 28.3933 101.324 29.1022 101.324 29.9163V31.0006C101.324 31.7937 101.384 32.492 101.503 33.0956C101.623 33.6921 101.805 34.1975 102.051 34.6115C102.303 35.0186 102.626 35.3274 103.019 35.5379C103.419 35.7415 103.9 35.8432 104.461 35.8432C105.121 35.8432 105.665 35.738 106.093 35.5274C106.521 35.3169 106.848 35.0046 107.072 34.5905C107.304 34.1764 107.441 33.6606 107.483 33.0429ZM115.863 22.7998V38.1277H112.704V22.7998H115.863ZM125.042 22.7998L118.968 30.369L115.463 34.1378L114.894 31.148L117.263 27.9056L121.168 22.7998H125.042ZM121.453 38.1277L116.936 31.0427L119.273 29.0846L125.19 38.1277H121.453ZM138.223 30.1163V36.1906C137.984 36.4784 137.616 36.7907 137.117 37.1276C136.619 37.4574 135.977 37.7417 135.191 37.9803C134.405 38.2189 133.454 38.3382 132.338 38.3382C131.348 38.3382 130.447 38.1768 129.632 37.854C128.818 37.5241 128.116 37.0434 127.527 36.4117C126.944 35.7801 126.495 35.0081 126.179 34.0957C125.864 33.1763 125.706 32.1271 125.706 30.948V29.99C125.706 28.8109 125.857 27.7617 126.158 26.8423C126.467 25.9229 126.906 25.1474 127.474 24.5158C128.043 23.8841 128.72 23.4034 129.506 23.0735C130.292 22.7436 131.166 22.5787 132.127 22.5787C133.461 22.5787 134.556 22.7963 135.412 23.2314C136.268 23.6595 136.921 24.2561 137.37 25.0211C137.826 25.779 138.107 26.6493 138.212 27.6319H135.149C135.072 27.1125 134.924 26.6598 134.707 26.2738C134.489 25.8878 134.177 25.586 133.77 25.3685C133.37 25.1509 132.85 25.0421 132.212 25.0421C131.685 25.0421 131.215 25.1509 130.801 25.3685C130.394 25.579 130.05 25.8913 129.769 26.3054C129.489 26.7195 129.274 27.2318 129.127 27.8424C128.98 28.453 128.906 29.1618 128.906 29.9689V30.948C128.906 31.7481 128.983 32.4569 129.138 33.0745C129.292 33.6851 129.52 34.201 129.822 34.6221C130.131 35.0361 130.51 35.3485 130.959 35.559C131.408 35.7695 131.931 35.8748 132.527 35.8748C133.026 35.8748 133.44 35.8327 133.77 35.7485C134.107 35.6643 134.377 35.5625 134.58 35.4432C134.791 35.3169 134.952 35.1976 135.065 35.0853V32.3692H132.18V30.1163H138.223ZM151.056 35.6643V38.1277H142.897V35.6643H151.056ZM143.929 22.7998V38.1277H140.77V22.7998H143.929ZM149.992 29.0425V31.4428H142.897V29.0425H149.992ZM151.045 22.7998V25.2737H142.897V22.7998H151.045ZM154.34 22.7998H157.014L160.951 34.0536L164.889 22.7998H167.563L162.025 38.1277H159.878L154.34 22.7998ZM152.898 22.7998H155.561L156.046 33.7693V38.1277H152.898V22.7998ZM166.341 22.7998H169.015V38.1277H165.857V33.7693L166.341 22.7998Z" fill="#F2F2F2"/>
</g>
<defs>
<filter id="filter0_dddd_2_12690" x="7.76843" y="9.7981" width="46.0276" height="46.7761" filterUnits="userSpaceOnUse" color-interpolation-filters="sRGB">
<feFlood flood-opacity="0" result="BackgroundImageFix"/>
<feColorMatrix in="SourceAlpha" type="matrix" values="0 0 0 0 0 0 0 0 0 0 0 0 0 0 0 0 0 0 127 0" result="hardAlpha"/>
<feOffset dy="1.42395"/>
<feGaussianBlur stdDeviation="0.711976"/>
<feColorMatrix type="matrix" values="0 0 0 0 0 0 0 0 0 0 0 0 0 0 0 0 0 0 0.25 0"/>
<feBlend mode="normal" in2="BackgroundImageFix" result="effect1_dropShadow_2_12690"/>
<feColorMatrix in="SourceAlpha" type="matrix" values="0 0 0 0 0 0 0 0 0 0 0 0 0 0 0 0 0 0 127 0" result="hardAlpha"/>
<feOffset dy="1.42395"/>
<feGaussianBlur stdDeviation="0.711976"/>
<feColorMatrix type="matrix" values="0 0 0 0 0 0 0 0 0 0 0 0 0 0 0 0 0 0 0.25 0"/>
<feBlend mode="normal" in2="effect1_dropShadow_2_12690" result="effect2_dropShadow_2_12690"/>
<feColorMatrix in="SourceAlpha" type="matrix" values="0 0 0 0 0 0 0 0 0 0 0 0 0 0 0 0 0 0 127 0" result="hardAlpha"/>
<feOffset dy="1.42395"/>
<feGaussianBlur stdDeviation="0.711976"/>
<feColorMatrix type="matrix" values="0 0 0 0 0 0 0 0 0 0 0 0 0 0 0 0 0 0 0.25 0"/>
<feBlend mode="normal" in2="effect2_dropShadow_2_12690" result="effect3_dropShadow_2_12690"/>
<feColorMatrix in="SourceAlpha" type="matrix" values="0 0 0 0 0 0 0 0 0 0 0 0 0 0 0 0 0 0 127 0" result="hardAlpha"/>
<feOffset dy="1.42395"/>
<feGaussianBlur stdDeviation="0.711976"/>
<feColorMatrix type="matrix" values="0 0 0 0 0 0 0 0 0 0 0 0 0 0 0 0 0 0 0.25 0"/>
<feBlend mode="normal" in2="effect3_dropShadow_2_12690" result="effect4_dropShadow_2_12690"/>
<feBlend mode="normal" in="SourceGraphic" in2="effect4_dropShadow_2_12690" result="shape"/>
</filter>
<filter id="filter1_ddd_2_12690" x="59.6407" y="22.5786" width="112.455" height="24.4462" filterUnits="userSpaceOnUse" color-interpolation-filters="sRGB">
<feFlood flood-opacity="0" result="BackgroundImageFix"/>
<feColorMatrix in="SourceAlpha" type="matrix" values="0 0 0 0 0 0 0 0 0 0 0 0 0 0 0 0 0 0 127 0" result="hardAlpha"/>
<feOffset dy="3.08002"/>
<feGaussianBlur stdDeviation="1.54001"/>
<feColorMatrix type="matrix" values="0 0 0 0 0 0 0 0 0 0 0 0 0 0 0 0 0 0 0.25 0"/>
<feBlend mode="normal" in2="BackgroundImageFix" result="effect1_dropShadow_2_12690"/>
<feColorMatrix in="SourceAlpha" type="matrix" values="0 0 0 0 0 0 0 0 0 0 0 0 0 0 0 0 0 0 127 0" result="hardAlpha"/>
<feOffset dy="3.08002"/>
<feGaussianBlur stdDeviation="1.54001"/>
<feColorMatrix type="matrix" values="0 0 0 0 0 0 0 0 0 0 0 0 0 0 0 0 0 0 0.25 0"/>
<feBlend mode="normal" in2="effect1_dropShadow_2_12690" result="effect2_dropShadow_2_12690"/>
<feColorMatrix in="SourceAlpha" type="matrix" values="0 0 0 0 0 0 0 0 0 0 0 0 0 0 0 0 0 0 127 0" result="hardAlpha"/>
<feOffset dy="3.08002"/>
<feGaussianBlur stdDeviation="1.54001"/>
<feColorMatrix type="matrix" values="0 0 0 0 0 0 0 0 0 0 0 0 0 0 0 0 0 0 0.25 0"/>
<feBlend mode="normal" in2="effect2_dropShadow_2_12690" result="effect3_dropShadow_2_12690"/>
<feBlend mode="normal" in="SourceGraphic" in2="effect3_dropShadow_2_12690" result="shape"/>
</filter>
</defs>
</svg>
