<svg width="25" height="25" viewBox="0 0 25 25" fill="none" xmlns="http://www.w3.org/2000/svg">
<path d="M21.4497 12.1544H3.44971C2.48971 12.1544 1.69971 11.3644 1.69971 10.4044V7.08442C1.69971 6.40442 2.16968 5.71443 2.79968 5.46443L11.7997 1.86445C12.1797 1.71445 12.7197 1.71445 13.0997 1.86445L22.0997 5.46443C22.7297 5.71443 23.1997 6.41442 23.1997 7.08442V10.4044C23.1997 11.3644 22.4097 12.1544 21.4497 12.1544ZM12.4497 3.24446C12.4097 3.24446 12.3697 3.24441 12.3497 3.25441L3.35968 6.85444C3.29968 6.88444 3.19971 7.01442 3.19971 7.08442V10.4044C3.19971 10.5444 3.30971 10.6544 3.44971 10.6544H21.4497C21.5897 10.6544 21.6997 10.5444 21.6997 10.4044V7.08442C21.6997 7.01442 21.6097 6.88444 21.5397 6.85444L12.5397 3.25441C12.5197 3.24441 12.4897 3.24446 12.4497 3.24446Z" fill="white"/>
<path d="M22.4497 23.1543H2.44971C2.03971 23.1543 1.69971 22.8143 1.69971 22.4043V19.4043C1.69971 18.4443 2.48971 17.6543 3.44971 17.6543H21.4497C22.4097 17.6543 23.1997 18.4443 23.1997 19.4043V22.4043C23.1997 22.8143 22.8597 23.1543 22.4497 23.1543ZM3.19971 21.6543H21.6997V19.4043C21.6997 19.2643 21.5897 19.1543 21.4497 19.1543H3.44971C3.30971 19.1543 3.19971 19.2643 3.19971 19.4043V21.6543Z" fill="white"/>
<path d="M4.44971 19.1543C4.03971 19.1543 3.69971 18.8143 3.69971 18.4043V11.4043C3.69971 10.9943 4.03971 10.6543 4.44971 10.6543C4.85971 10.6543 5.19971 10.9943 5.19971 11.4043V18.4043C5.19971 18.8143 4.85971 19.1543 4.44971 19.1543Z" fill="white"/>
<path d="M8.44971 19.1543C8.03971 19.1543 7.69971 18.8143 7.69971 18.4043V11.4043C7.69971 10.9943 8.03971 10.6543 8.44971 10.6543C8.85971 10.6543 9.19971 10.9943 9.19971 11.4043V18.4043C9.19971 18.8143 8.85971 19.1543 8.44971 19.1543Z" fill="white"/>
<path d="M12.4497 19.1543C12.0397 19.1543 11.6997 18.8143 11.6997 18.4043V11.4043C11.6997 10.9943 12.0397 10.6543 12.4497 10.6543C12.8597 10.6543 13.1997 10.9943 13.1997 11.4043V18.4043C13.1997 18.8143 12.8597 19.1543 12.4497 19.1543Z" fill="white"/>
<path d="M16.4497 19.1543C16.0397 19.1543 15.6997 18.8143 15.6997 18.4043V11.4043C15.6997 10.9943 16.0397 10.6543 16.4497 10.6543C16.8597 10.6543 17.1997 10.9943 17.1997 11.4043V18.4043C17.1997 18.8143 16.8597 19.1543 16.4497 19.1543Z" fill="white"/>
<path d="M20.4497 19.1543C20.0397 19.1543 19.6997 18.8143 19.6997 18.4043V11.4043C19.6997 10.9943 20.0397 10.6543 20.4497 10.6543C20.8597 10.6543 21.1997 10.9943 21.1997 11.4043V18.4043C21.1997 18.8143 20.8597 19.1543 20.4497 19.1543Z" fill="white"/>
<path d="M23.4497 23.1543H1.44971C1.03971 23.1543 0.699707 22.8143 0.699707 22.4043C0.699707 21.9943 1.03971 21.6543 1.44971 21.6543H23.4497C23.8597 21.6543 24.1997 21.9943 24.1997 22.4043C24.1997 22.8143 23.8597 23.1543 23.4497 23.1543Z" fill="white"/>
<path d="M12.4497 9.6543C11.2097 9.6543 10.1997 8.6443 10.1997 7.4043C10.1997 6.1643 11.2097 5.1543 12.4497 5.1543C13.6897 5.1543 14.6997 6.1643 14.6997 7.4043C14.6997 8.6443 13.6897 9.6543 12.4497 9.6543ZM12.4497 6.6543C12.0397 6.6543 11.6997 6.9943 11.6997 7.4043C11.6997 7.8143 12.0397 8.1543 12.4497 8.1543C12.8597 8.1543 13.1997 7.8143 13.1997 7.4043C13.1997 6.9943 12.8597 6.6543 12.4497 6.6543Z" fill="white"/>
</svg>
