<svg width="25" height="25" viewBox="0 0 25 25" fill="none" xmlns="http://www.w3.org/2000/svg">
<path d="M22.4492 10.2041H2.44922C2.03922 10.2041 1.69922 9.8641 1.69922 9.4541C1.69922 9.0441 2.03922 8.7041 2.44922 8.7041H22.4492C22.8592 8.7041 23.1992 9.0441 23.1992 9.4541C23.1992 9.8641 22.8592 10.2041 22.4492 10.2041Z" fill="white"/>
<path d="M8.44922 18.2041H6.44922C6.03922 18.2041 5.69922 17.8641 5.69922 17.4541C5.69922 17.0441 6.03922 16.7041 6.44922 16.7041H8.44922C8.85922 16.7041 9.19922 17.0441 9.19922 17.4541C9.19922 17.8641 8.85922 18.2041 8.44922 18.2041Z" fill="white"/>
<path d="M14.9492 18.2041H10.9492C10.5392 18.2041 10.1992 17.8641 10.1992 17.4541C10.1992 17.0441 10.5392 16.7041 10.9492 16.7041H14.9492C15.3592 16.7041 15.6992 17.0441 15.6992 17.4541C15.6992 17.8641 15.3592 18.2041 14.9492 18.2041Z" fill="white"/>
<path d="M18.0092 22.2041H6.88922C2.90922 22.2041 1.69922 21.0041 1.69922 17.0641V8.8441C1.69922 4.9041 2.90922 3.7041 6.88922 3.7041H17.9992C21.9792 3.7041 23.1892 4.9041 23.1892 8.8441V17.0541C23.1992 21.0041 21.9892 22.2041 18.0092 22.2041ZM6.88922 5.2041C3.74922 5.2041 3.19922 5.7441 3.19922 8.8441V17.0541C3.19922 20.1541 3.74922 20.6941 6.88922 20.6941H17.9992C21.1392 20.6941 21.6892 20.1541 21.6892 17.0541V8.8441C21.6892 5.7441 21.1392 5.2041 17.9992 5.2041H6.88922Z" fill="white"/>
</svg>
