<svg width="26" height="26" viewBox="0 0 26 26" fill="none" xmlns="http://www.w3.org/2000/svg">
<path d="M8.78256 8.00586C8.35108 8.00586 8.00131 8.35564 8.00131 8.78711C8.00131 9.21859 8.35108 9.56837 8.78256 9.56837H17.1159C17.5474 9.56837 17.8971 9.21859 17.8971 8.78711C17.8971 8.35564 17.5474 8.00586 17.1159 8.00586H8.78256Z" fill="#F7F7F7"/>
<path d="M8.78256 12.1725C8.35108 12.1725 8.00131 12.5223 8.00131 12.9538C8.00131 13.3853 8.35108 13.735 8.78256 13.735H11.9076C12.339 13.735 12.6888 13.3853 12.6888 12.9538C12.6888 12.5223 12.339 12.1725 11.9076 12.1725H8.78256Z" fill="#F7F7F7"/>
<path d="M8.78256 16.3392C8.35108 16.3392 8.00131 16.689 8.00131 17.1205C8.00131 17.5519 8.35108 17.9017 8.78256 17.9017H17.1159C17.5474 17.9017 17.8971 17.5519 17.8971 17.1205C17.8971 16.689 17.5474 16.3392 17.1159 16.3392H8.78256Z" fill="#F7F7F7"/>
<path fill-rule="evenodd" clip-rule="evenodd" d="M17.5987 1.88474C16.409 1.75584 14.9094 1.75585 12.9964 1.75586H12.9021C10.989 1.75585 9.48945 1.75584 8.29972 1.88474C7.08562 2.01628 6.10189 2.28953 5.26197 2.89977C4.75348 3.2692 4.30631 3.71637 3.93688 4.22486C3.32664 5.06478 3.05339 6.04851 2.92185 7.26261C2.79295 8.45233 2.79296 9.95192 2.79297 11.865V14.0426C2.79296 15.9556 2.79295 17.4552 2.92185 18.645C3.05339 19.8591 3.32664 20.8428 3.93688 21.6827C4.30631 22.1912 4.75348 22.6384 5.26197 23.0078C6.10189 23.618 7.08562 23.8913 8.29972 24.0228C9.48942 24.1517 10.989 24.1517 12.902 24.1517H12.9964C14.9094 24.1517 16.409 24.1517 17.5987 24.0228C18.8128 23.8913 19.7966 23.618 20.6365 23.0078C21.145 22.6384 21.5921 22.1912 21.9616 21.6827C22.5718 20.8428 22.8451 19.8591 22.9766 18.645C23.1055 17.4553 23.1055 15.9557 23.1055 14.0427V11.865C23.1055 9.95195 23.1055 8.45232 22.9766 7.26261C22.8451 6.04851 22.5718 5.06478 21.9616 4.22486C21.5921 3.71637 21.145 3.2692 20.6365 2.89977C19.7966 2.28953 18.8128 2.01628 17.5987 1.88474ZM6.18038 4.16386C6.70955 3.77939 7.38686 3.55529 8.46802 3.43815C9.5638 3.31943 10.9788 3.31836 12.9492 3.31836C14.9196 3.31836 16.3347 3.31943 17.4304 3.43815C18.5116 3.55529 19.1889 3.77939 19.7181 4.16386C20.0939 4.43692 20.4244 4.76744 20.6975 5.14327C21.082 5.67244 21.3061 6.34975 21.4232 7.43091C21.5419 8.52669 21.543 9.94173 21.543 11.9121V13.9955C21.543 15.9658 21.5419 17.3809 21.4232 18.4767C21.3061 19.5578 21.082 20.2351 20.6975 20.7643C20.4244 21.1401 20.0939 21.4706 19.7181 21.7437C19.1889 22.1282 18.5116 22.3523 17.4304 22.4694C16.3347 22.5881 14.9196 22.5892 12.9492 22.5892C10.9788 22.5892 9.5638 22.5881 8.46802 22.4694C7.38686 22.3523 6.70955 22.1282 6.18038 21.7437C5.80454 21.4707 5.47403 21.1401 5.20097 20.7643C4.8165 20.2351 4.5924 19.5578 4.47526 18.4767C4.35654 17.3809 4.35547 15.9658 4.35547 13.9955V11.9121C4.35547 9.94173 4.35654 8.52669 4.47526 7.43091C4.5924 6.34975 4.8165 5.67244 5.20097 5.14327C5.47403 4.76744 5.80454 4.43692 6.18038 4.16386Z" fill="#F7F7F7"/>
</svg>
