<svg width="26" height="26" viewBox="0 0 26 26" fill="none" xmlns="http://www.w3.org/2000/svg">
<path d="M8.43412 15.0784C8.23551 14.6953 7.76398 14.5458 7.38094 14.7444C6.9979 14.9431 6.84839 15.4146 7.04701 15.7976C7.46113 16.5963 8.23215 17.4714 9.22837 18.1488C10.2317 18.831 11.5105 19.3443 12.9489 19.3443C14.3873 19.3443 15.6661 18.831 16.6694 18.1488C17.6657 17.4714 18.4367 16.5963 18.8508 15.7976C19.0494 15.4146 18.8999 14.9431 18.5169 14.7444C18.1338 14.5458 17.6623 14.6953 17.4637 15.0784C17.1834 15.619 16.6002 16.3064 15.7909 16.8567C14.9886 17.4022 14.0105 17.7817 12.9489 17.7817C11.8873 17.7817 10.9092 17.4022 10.1069 16.8567C9.29759 16.3064 8.71444 15.619 8.43412 15.0784Z" fill="#F7F7F7"/>
<path fill-rule="evenodd" clip-rule="evenodd" d="M12.9489 2.15674C6.76446 2.15674 1.75098 7.17022 1.75098 13.3547C1.75098 19.5391 6.76446 24.5526 12.9489 24.5526C19.1333 24.5526 24.1468 19.5391 24.1468 13.3547C24.1468 7.17022 19.1333 2.15674 12.9489 2.15674ZM3.31348 13.3547C3.31348 8.03317 7.6274 3.71924 12.9489 3.71924C18.2704 3.71924 22.5843 8.03317 22.5843 13.3547C22.5843 18.6762 18.2704 22.9901 12.9489 22.9901C7.6274 22.9901 3.31348 18.6762 3.31348 13.3547Z" fill="#F7F7F7"/>
<path d="M10.8656 9.18799C10.8656 9.76329 10.3992 10.2297 9.8239 10.2297C9.2486 10.2297 8.78223 9.76329 8.78223 9.18799C8.78223 8.6127 9.2486 8.14633 9.8239 8.14633C10.3992 8.14633 10.8656 8.6127 10.8656 9.18799Z" fill="#F7F7F7"/>
<path d="M17.1156 9.18799C17.1156 9.76329 16.6492 10.2297 16.0739 10.2297C15.4986 10.2297 15.0322 9.76329 15.0322 9.18799C15.0322 8.6127 15.4986 8.14633 16.0739 8.14633C16.6492 8.14633 17.1156 8.6127 17.1156 9.18799Z" fill="#F7F7F7"/>
</svg>
