<svg width="26" height="26" viewBox="0 0 26 26" fill="none" xmlns="http://www.w3.org/2000/svg">
<g clip-path="url(#clip0_2_12745)">
<path d="M13.049 16.3035C14.7887 16.3035 16.199 14.8932 16.199 13.1535C16.199 11.4138 14.7887 10.0035 13.049 10.0035C11.3093 10.0035 9.89902 11.4138 9.89902 13.1535C9.89902 14.8932 11.3093 16.3035 13.049 16.3035Z" stroke="#D0D5DD" stroke-width="2.1" stroke-linecap="round" stroke-linejoin="round"/>
<path d="M20.819 16.3035C20.6793 16.6202 20.6376 16.9715 20.6993 17.3121C20.7611 17.6527 20.9235 17.9671 21.1655 18.2145L21.2285 18.2775C21.4238 18.4725 21.5787 18.7042 21.6843 18.9591C21.79 19.214 21.8444 19.4873 21.8444 19.7633C21.8444 20.0392 21.79 20.3125 21.6843 20.5674C21.5787 20.8224 21.4238 21.054 21.2285 21.249C21.0335 21.4443 20.8019 21.5992 20.5469 21.7048C20.292 21.8105 20.0187 21.8649 19.7428 21.8649C19.4668 21.8649 19.1935 21.8105 18.9386 21.7048C18.6837 21.5992 18.4521 21.4443 18.257 21.249L18.194 21.186C17.9466 20.944 17.6323 20.7816 17.2916 20.7198C16.951 20.6581 16.5997 20.6997 16.283 20.8395C15.9725 20.9726 15.7076 21.1936 15.521 21.4753C15.3345 21.757 15.2344 22.0871 15.233 22.425V22.6035C15.233 23.1605 15.0118 23.6946 14.6179 24.0884C14.2241 24.4823 13.69 24.7035 13.133 24.7035C12.5761 24.7035 12.0419 24.4823 11.6481 24.0884C11.2543 23.6946 11.033 23.1605 11.033 22.6035V22.509C11.0249 22.1615 10.9124 21.8244 10.7102 21.5417C10.5079 21.2589 10.2253 21.0435 9.89902 20.9235C9.58233 20.7837 9.23102 20.7421 8.89041 20.8038C8.54979 20.8656 8.23549 21.028 7.98802 21.27L7.92502 21.333C7.72999 21.5283 7.49838 21.6832 7.24345 21.7888C6.98851 21.8945 6.71525 21.9489 6.43927 21.9489C6.1633 21.9489 5.89003 21.8945 5.6351 21.7888C5.38016 21.6832 5.14856 21.5283 4.95352 21.333C4.75827 21.138 4.60338 20.9064 4.4977 20.6514C4.39202 20.3965 4.33762 20.1232 4.33762 19.8473C4.33762 19.5713 4.39202 19.298 4.4977 19.0431C4.60338 18.7882 4.75827 18.5565 4.95352 18.3615L5.01652 18.2985C5.25859 18.0511 5.42097 17.7367 5.48273 17.3961C5.54449 17.0555 5.50279 16.7042 5.36302 16.3875C5.22992 16.077 5.00892 15.8121 4.72721 15.6255C4.44551 15.439 4.1154 15.3389 3.77752 15.3375H3.59902C3.04207 15.3375 2.50793 15.1163 2.1141 14.7224C1.72027 14.3286 1.49902 13.7945 1.49902 13.2375C1.49902 12.6806 1.72027 12.1464 2.1141 11.7526C2.50793 11.3588 3.04207 11.1375 3.59902 11.1375H3.69352C4.04107 11.1294 4.37813 11.0169 4.66089 10.8147C4.94365 10.6124 5.15902 10.3298 5.27902 10.0035C5.41879 9.68682 5.46049 9.33551 5.39873 8.9949C5.33697 8.65428 5.17459 8.33998 4.93252 8.09252L4.86952 8.02952C4.67427 7.83448 4.51938 7.60288 4.4137 7.34794C4.30802 7.093 4.25362 6.81974 4.25362 6.54377C4.25362 6.26779 4.30802 5.99453 4.4137 5.73959C4.51938 5.48465 4.67427 5.25305 4.86952 5.05802C5.06456 4.86276 5.29616 4.70787 5.5511 4.60219C5.80603 4.49651 6.0793 4.44211 6.35527 4.44211C6.63125 4.44211 6.90451 4.49651 7.15945 4.60219C7.41438 4.70787 7.64599 4.86276 7.84102 5.05802L7.90402 5.12102C8.15149 5.36308 8.46579 5.52546 8.8064 5.58722C9.14702 5.64898 9.49833 5.60729 9.81502 5.46752H9.89902C10.2096 5.33441 10.4744 5.11341 10.661 4.8317C10.8476 4.55 10.9477 4.21989 10.949 3.88202V3.70352C10.949 3.14656 11.1703 2.61242 11.5641 2.21859C11.9579 1.82477 12.4921 1.60352 13.049 1.60352C13.606 1.60352 14.1401 1.82477 14.5339 2.21859C14.9278 2.61242 15.149 3.14656 15.149 3.70352V3.79802C15.1504 4.13589 15.2505 4.466 15.437 4.7477C15.6236 5.02941 15.8885 5.25041 16.199 5.38352C16.5157 5.52329 16.867 5.56498 17.2076 5.50322C17.5483 5.44146 17.8626 5.27908 18.11 5.03702L18.173 4.97402C18.3681 4.77876 18.5997 4.62387 18.8546 4.51819C19.1095 4.41251 19.3828 4.35811 19.6588 4.35811C19.9347 4.35811 20.208 4.41251 20.4629 4.51819C20.7179 4.62387 20.9495 4.77876 21.1445 4.97402C21.3398 5.16905 21.4947 5.40065 21.6003 5.65559C21.706 5.91053 21.7604 6.18379 21.7604 6.45977C21.7604 6.73574 21.706 7.009 21.6003 7.26394C21.4947 7.51888 21.3398 7.75048 21.1445 7.94552L21.0815 8.00852C20.8395 8.25598 20.6771 8.57028 20.6153 8.9109C20.5536 9.25151 20.5953 9.60282 20.735 9.91952V10.0035C20.8681 10.3141 21.0891 10.5789 21.3708 10.7655C21.6525 10.9521 21.9826 11.0522 22.3205 11.0535H22.499C23.056 11.0535 23.5901 11.2748 23.9839 11.6686C24.3778 12.0624 24.599 12.5966 24.599 13.1535C24.599 13.7105 24.3778 14.2446 23.9839 14.6384C23.5901 15.0323 23.056 15.2535 22.499 15.2535H22.4045C22.0666 15.2549 21.7365 15.355 21.4548 15.5415C21.1731 15.7281 20.9521 15.993 20.819 16.3035Z" stroke="#D0D5DD" stroke-width="2.1" stroke-linecap="round" stroke-linejoin="round"/>
</g>
<defs>
<clipPath id="clip0_2_12745">
<rect width="25.2" height="25.2" fill="white" transform="translate(0.449219 0.553711)"/>
</clipPath>
</defs>
</svg>
