<svg width="26" height="26" viewBox="0 0 26 26" fill="none" xmlns="http://www.w3.org/2000/svg">
<g clip-path="url(#clip0_2_12723)">
<path fill-rule="evenodd" clip-rule="evenodd" d="M13.7308 1.49585C13.7308 1.06438 13.381 0.7146 12.9496 0.7146C12.5181 0.7146 12.1683 1.06438 12.1683 1.49585V4.88167C10.7451 4.88519 9.81021 4.91615 9.01533 5.17442C7.19187 5.7669 5.76226 7.19651 5.16978 9.01997C4.91151 9.81485 4.88055 10.7497 4.87703 12.1729H1.49121C1.05974 12.1729 0.709961 12.5227 0.709961 12.9542C0.709961 13.3857 1.05974 13.7354 1.49121 13.7354H4.87703C4.88055 15.1587 4.91151 16.0935 5.16978 16.8884C5.76226 18.7119 7.19187 20.1415 9.01533 20.734C9.81021 20.9922 10.7451 21.0232 12.1683 21.0267V24.4125C12.1683 24.844 12.5181 25.1938 12.9496 25.1938C13.381 25.1938 13.7308 24.844 13.7308 24.4125V21.0267C15.154 21.0232 16.0889 20.9922 16.8838 20.734C18.7072 20.1415 20.1368 18.7119 20.7293 16.8884C20.9876 16.0935 21.0186 15.1587 21.0221 13.7354H24.4079C24.8394 13.7354 25.1891 13.3857 25.1891 12.9542C25.1891 12.5227 24.8394 12.1729 24.4079 12.1729H21.0221C21.0186 10.7497 20.9876 9.81485 20.7293 9.01997C20.1368 7.19651 18.7072 5.7669 16.8838 5.17442C16.0889 4.91615 15.154 4.88519 13.7308 4.88167V1.49585ZM9.49817 6.66045C10.0451 6.48273 10.7227 6.45046 12.1683 6.44488V6.70419C12.1683 7.13566 12.5181 7.48544 12.9496 7.48544C13.381 7.48544 13.7308 7.13566 13.7308 6.70419V6.44488C15.1764 6.45046 15.854 6.48273 16.4009 6.66045C17.7487 7.09836 18.8054 8.15504 19.2433 9.50281C19.421 10.0498 19.4533 10.7274 19.4589 12.1729H19.1996C18.7681 12.1729 18.4183 12.5227 18.4183 12.9542C18.4183 13.3857 18.7681 13.7354 19.1996 13.7354H19.4589C19.4533 15.181 19.421 15.8586 19.2433 16.4056C18.8054 17.7533 17.7487 18.81 16.4009 19.2479C15.854 19.4256 15.1764 19.4579 13.7308 19.4635V19.2042C13.7308 18.7727 13.381 18.4229 12.9496 18.4229C12.5181 18.4229 12.1683 18.7727 12.1683 19.2042V19.4635C10.7227 19.4579 10.0451 19.4256 9.49817 19.2479C8.1504 18.81 7.09373 17.7533 6.65581 16.4056C6.4781 15.8586 6.44582 15.181 6.44024 13.7354H6.69955C7.13102 13.7354 7.4808 13.3857 7.4808 12.9542C7.4808 12.5227 7.13102 12.1729 6.69955 12.1729H6.44024C6.44582 10.7274 6.4781 10.0498 6.65581 9.50281C7.09373 8.15504 8.1504 7.09836 9.49817 6.66045Z" fill="#F7F7F7"/>
<path fill-rule="evenodd" clip-rule="evenodd" d="M10.3454 12.9542C10.3454 14.3924 11.5113 15.5584 12.9496 15.5584C14.3878 15.5584 15.5537 14.3924 15.5537 12.9542C15.5537 11.5159 14.3878 10.35 12.9496 10.35C11.5113 10.35 10.3454 11.5159 10.3454 12.9542ZM11.9079 12.9542C11.9079 13.5295 12.3743 13.9959 12.9496 13.9959C13.5248 13.9959 13.9912 13.5295 13.9912 12.9542C13.9912 12.3789 13.5248 11.9125 12.9496 11.9125C12.3743 11.9125 11.9079 12.3789 11.9079 12.9542Z" fill="#F7F7F7"/>
</g>
<defs>
<clipPath id="clip0_2_12723">
<rect width="25" height="25" fill="white" transform="translate(0.449219 0.454102)"/>
</clipPath>
</defs>
</svg>
