<svg width="26" height="26" viewBox="0 0 26 26" fill="none" xmlns="http://www.w3.org/2000/svg">
<g clip-path="url(#clip0_2_12731)">
<path d="M18.299 22.4039V20.3039C18.299 19.19 17.8565 18.1217 17.0689 17.3341C16.2812 16.5464 15.2129 16.1039 14.099 16.1039H5.69902C4.58511 16.1039 3.51683 16.5464 2.72917 17.3341C1.94152 18.1217 1.49902 19.19 1.49902 20.3039V22.4039M24.599 22.4039V20.3039C24.5983 19.3733 24.2886 18.4693 23.7185 17.7338C23.1483 16.9984 22.3501 16.4731 21.449 16.2404M17.249 3.64041C18.1525 3.87172 18.9532 4.39714 19.525 5.13383C20.0969 5.87052 20.4073 6.77658 20.4073 7.70916C20.4073 8.64173 20.0969 9.54779 19.525 10.2845C18.9532 11.0212 18.1525 11.5466 17.249 11.7779M14.099 7.70391C14.099 10.0235 12.2186 11.9039 9.89902 11.9039C7.57943 11.9039 5.69902 10.0235 5.69902 7.70391C5.69902 5.38431 7.57943 3.50391 9.89902 3.50391C12.2186 3.50391 14.099 5.38431 14.099 7.70391Z" stroke="#D0D5DD" stroke-width="2.1" stroke-linecap="round" stroke-linejoin="round"/>
</g>
<defs>
<clipPath id="clip0_2_12731">
<rect width="25.2" height="25.2" fill="white" transform="translate(0.449219 0.354004)"/>
</clipPath>
</defs>
</svg>
