<svg width="62" height="64" viewBox="0 0 62 64" fill="none" xmlns="http://www.w3.org/2000/svg">
<g filter="url(#filter0_dddd_2_12786)">
<path opacity="0.744" d="M31.3503 40.7701C31.2971 40.8685 31.2076 40.8303 31.129 40.8291C30.9005 40.7258 30.828 40.4921 30.7192 40.299C29.1608 37.5341 27.5856 34.7791 26.026 32.0154C25.9184 31.8248 25.6851 31.6231 25.9571 31.3783C26.1441 31.3053 26.3452 31.2775 26.5446 31.2972C29.6291 31.2972 32.7135 31.2972 35.798 31.2972C35.9707 31.285 36.1442 31.3012 36.3119 31.3451C36.3448 31.356 36.3747 31.3746 36.3992 31.3993C36.4238 31.4241 36.4423 31.4544 36.4533 31.4878C36.4662 31.6645 36.4097 31.8392 36.2962 31.9736C34.7027 34.7533 33.1359 37.5477 31.5449 40.3285C31.4583 40.4648 31.3928 40.6137 31.3503 40.7701Z" fill="#35B172"/>
<path opacity="0.841" d="M36.3987 31.4285H26.3643C26.1927 31.403 26.0175 31.4318 25.8625 31.5109C25.8352 31.4815 25.8179 31.444 25.813 31.4039C25.9629 30.9716 26.1746 30.5642 26.4416 30.1949C27.9286 27.5628 29.4197 24.9332 30.9148 22.3061C30.9507 22.2337 31.0014 22.17 31.0635 22.1192C31.1457 22.097 31.2267 22.0761 31.2811 22.1733C32.3607 24.0379 33.4149 25.9172 34.4776 27.7904C35.0829 28.8563 35.6874 29.9223 36.2911 30.9882C36.3648 31.1186 36.5111 31.2452 36.3987 31.4285Z" fill="#35B172"/>
<path opacity="0.754" d="M36.399 31.4235C35.8091 30.3584 35.2251 29.2895 34.6267 28.2256C33.6595 26.5222 32.6923 24.8261 31.7252 23.1215C31.5018 22.8444 31.3498 22.5151 31.2827 22.1633C32.8681 23.0882 34.453 24.0131 36.0376 24.938C36.9926 25.4964 37.9429 26.0659 38.9028 26.6169C38.9874 26.6519 39.0591 26.7129 39.1079 26.7915C39.1566 26.87 39.18 26.962 39.1748 27.0548C39.1683 30.0066 39.1683 32.9555 39.1748 35.9016C39.1748 35.9791 39.1978 36.0664 39.1192 36.1242C39.0809 36.0915 39.0517 36.0491 39.0346 36.0013C39.0083 35.8827 38.9985 35.761 39.0056 35.6397C39.0056 32.9396 39.0056 30.2395 39.0056 27.5394C38.9931 27.4478 39.0026 27.3545 39.0333 27.2675C38.4663 28.0818 38.0481 28.9784 37.5427 29.8233C37.2054 30.3879 36.8959 30.9709 36.555 31.5342C36.5126 31.5784 36.4667 31.6141 36.4014 31.5846C36.399 31.5338 36.3982 31.48 36.399 31.4235Z" fill="#35B172"/>
<path opacity="0.707" d="M25.8591 31.4279C25.8591 31.4574 25.8591 31.4857 25.8591 31.5152C26.6224 32.8714 27.3857 34.2272 28.1489 35.5826C29.1387 37.334 30.13 39.0846 31.1229 40.8344C30.772 40.7736 30.4433 40.6191 30.1703 40.3867C27.9015 39.0633 25.6359 37.7341 23.3735 36.3992C23.3222 36.3612 23.2751 36.3175 23.2332 36.2689C23.1785 36.2088 23.1467 36.1309 23.1434 36.049C23.14 35.9672 23.1655 35.8869 23.2152 35.8224C24.0143 34.3785 24.8363 32.9481 25.6596 31.5177C25.6821 31.4842 25.7099 31.4546 25.7418 31.4303C25.7584 31.4169 25.7789 31.4094 25.8001 31.409C25.8213 31.4085 25.842 31.4152 25.8591 31.4279Z" fill="#35B172"/>
<path opacity="0.754" d="M25.8592 31.4224H25.7831C25.6622 31.4556 25.6174 31.3572 25.5739 31.2797C24.7518 29.8333 23.9225 28.3906 23.1161 26.9344C23.1161 26.8569 23.0786 26.7696 23.1692 26.713C24.0808 26.1706 24.99 25.6258 25.9028 25.0883C27.5284 24.133 29.1556 23.1807 30.7845 22.2312C30.8757 22.1841 30.9699 22.143 31.0662 22.1082C30.8702 22.6375 30.6094 23.1395 30.29 23.6025C28.8208 26.2174 27.3438 28.824 25.8592 31.4224Z" fill="#35B172"/>
<path opacity="0.754" d="M36.3974 31.5884L36.4796 31.5097C36.6222 31.4765 36.6621 31.5995 36.7117 31.6844C37.4939 33.0188 38.2544 34.3656 39.0088 35.7173C39.025 35.7541 39.0364 35.793 39.0426 35.8329C39.074 35.9006 39.0607 35.983 39.1043 36.0469L39.1164 36.1318C38.7657 36.4771 38.3516 36.7488 37.8977 36.9312C36.4155 37.8303 34.9164 38.7011 33.4245 39.578C32.7379 39.9815 32.0451 40.3726 31.3548 40.7698C31.1348 40.6296 31.3451 40.5079 31.3947 40.4169C31.8335 39.6162 32.2917 38.8253 32.7415 38.032L35.8606 32.5305C36.0347 32.2157 36.2172 31.9021 36.3974 31.5884Z" fill="#35B172"/>
<path opacity="0.73" d="M23.1509 26.9622C23.5227 27.4292 23.8381 27.94 24.0903 28.4836C24.6669 29.4577 25.2194 30.4515 25.7828 31.4293C25.2339 32.5485 24.5653 33.5976 23.9693 34.6886C23.7501 35.0879 23.5244 35.4831 23.2923 35.8742C23.2336 35.9954 23.2158 36.1328 23.2415 36.2653C23.1823 36.2949 23.1581 36.2506 23.1303 36.2124C23.0892 35.7414 23.1134 35.2703 23.1134 34.7993C23.1134 32.332 23.1134 29.8652 23.1134 27.3988C23.0856 27.2525 23.0986 27.1013 23.1509 26.9622Z" fill="#35B172"/>
<path opacity="0.73" d="M39.0318 35.8935C38.3935 34.7849 37.7552 33.678 37.1169 32.5727C36.9101 32.216 36.6913 31.8667 36.4785 31.515L39.0318 27.0479C39.0756 27.1469 39.0887 27.2572 39.0693 27.3639C39.0693 30.1034 39.0693 32.8433 39.0693 35.5836C39.0874 35.6884 39.0744 35.7963 39.0318 35.8935Z" fill="#35B172"/>
<path d="M45.1365 48.8283C44.0344 49.1971 42.9611 49.6494 41.9256 50.1815C37.4311 52.9879 32.0824 54.0237 26.8888 53.0935C21.6951 52.1633 17.0157 49.3314 13.7336 45.1322C10.4514 40.933 8.7935 35.6569 9.07265 30.2995C9.35181 24.942 11.5487 19.8738 15.2489 16.0511C18.949 12.2284 23.8965 9.91571 29.1577 9.54933C34.4189 9.18295 39.63 10.7883 43.8076 14.0623C47.9852 17.3364 50.8405 22.0528 51.8347 27.3216C52.8288 32.5904 51.893 38.0471 49.2039 42.6622C48.6072 43.8221 48.0741 45.0149 47.607 46.2348C44.9612 43.6667 42.9386 40.6749 43.29 36.5274C43.4378 34.7801 43.7362 33.0347 43.7311 31.2883C43.8219 28.5378 43.0451 25.8298 41.5142 23.5607C39.9834 21.2917 37.779 19.5806 35.2234 18.6778C32.6763 17.6945 29.8924 17.5371 27.2538 18.2274C24.6152 18.9177 22.2513 20.4217 20.4864 22.5332C18.7278 24.4758 17.5924 26.9172 17.231 29.5325C16.8697 32.1477 17.2997 34.813 18.4638 37.1735C20.8711 42.5047 25.2394 44.9225 30.9619 44.8442C32.007 44.8443 33.0499 44.7479 34.0779 44.5563C38.6848 43.6266 42.1803 45.5495 45.1365 48.8283Z" fill="#35B172"/>
</g>
<defs>
<filter id="filter0_dddd_2_12786" x="7.61853" y="9.49805" width="46.0271" height="46.7761" filterUnits="userSpaceOnUse" color-interpolation-filters="sRGB">
<feFlood flood-opacity="0" result="BackgroundImageFix"/>
<feColorMatrix in="SourceAlpha" type="matrix" values="0 0 0 0 0 0 0 0 0 0 0 0 0 0 0 0 0 0 127 0" result="hardAlpha"/>
<feOffset dy="1.42395"/>
<feGaussianBlur stdDeviation="0.711976"/>
<feColorMatrix type="matrix" values="0 0 0 0 0 0 0 0 0 0 0 0 0 0 0 0 0 0 0.25 0"/>
<feBlend mode="normal" in2="BackgroundImageFix" result="effect1_dropShadow_2_12786"/>
<feColorMatrix in="SourceAlpha" type="matrix" values="0 0 0 0 0 0 0 0 0 0 0 0 0 0 0 0 0 0 127 0" result="hardAlpha"/>
<feOffset dy="1.42395"/>
<feGaussianBlur stdDeviation="0.711976"/>
<feColorMatrix type="matrix" values="0 0 0 0 0 0 0 0 0 0 0 0 0 0 0 0 0 0 0.25 0"/>
<feBlend mode="normal" in2="effect1_dropShadow_2_12786" result="effect2_dropShadow_2_12786"/>
<feColorMatrix in="SourceAlpha" type="matrix" values="0 0 0 0 0 0 0 0 0 0 0 0 0 0 0 0 0 0 127 0" result="hardAlpha"/>
<feOffset dy="1.42395"/>
<feGaussianBlur stdDeviation="0.711976"/>
<feColorMatrix type="matrix" values="0 0 0 0 0 0 0 0 0 0 0 0 0 0 0 0 0 0 0.25 0"/>
<feBlend mode="normal" in2="effect2_dropShadow_2_12786" result="effect3_dropShadow_2_12786"/>
<feColorMatrix in="SourceAlpha" type="matrix" values="0 0 0 0 0 0 0 0 0 0 0 0 0 0 0 0 0 0 127 0" result="hardAlpha"/>
<feOffset dy="1.42395"/>
<feGaussianBlur stdDeviation="0.711976"/>
<feColorMatrix type="matrix" values="0 0 0 0 0 0 0 0 0 0 0 0 0 0 0 0 0 0 0.25 0"/>
<feBlend mode="normal" in2="effect3_dropShadow_2_12786" result="effect4_dropShadow_2_12786"/>
<feBlend mode="normal" in="SourceGraphic" in2="effect4_dropShadow_2_12786" result="shape"/>
</filter>
</defs>
</svg>
